<svg width="607" height="525" viewBox="0 0 607 525" fill="none" xmlns="http://www.w3.org/2000/svg">
<g opacity="0.5" filter="url(#filter0_d_61_1078)">
<path d="M330.205 516.07C330.075 516.08 329.925 516.1 329.775 516.11C307.275 518.41 267.945 512.69 252.065 511.37C239.065 510.28 208.055 511.44 192.275 507.72C180.385 504.91 183.575 496.92 173.505 496.61C162.135 496.25 134.155 490.48 119.415 487.35C99.135 483.03 92.025 480.26 79.725 472.28C68.005 464.68 75.645 456.98 90.315 450.23C99.645 445.94 105.205 437.88 117.055 434.62C129.465 431.22 158.955 433.29 166.995 431.62C179.175 429.1 171.725 424.99 181.145 424.08C193.235 422.92 220.015 425.68 235.195 425.76C245.975 425.82 249.785 426.75 310.725 427.1C312.885 427.11 317.365 426.89 323.145 426.54C324.675 437.59 328.755 452.76 330.305 474.67C331.135 486.49 329.755 501.56 330.175 516.06L330.205 516.07Z" fill="black" fill-opacity="0.3"/>
</g>
<g opacity="0.5" filter="url(#filter1_d_61_1078)">
<path d="M566.155 457.52C563.245 461.76 540.705 468.52 522.025 476.11C501.665 484.39 492.905 493.71 477.035 497.43C463.575 500.58 446.125 509.08 423.795 510.12C402.985 511.08 380.515 501.08 374.445 501.73C358.035 503.49 352.355 513.68 330.215 516.06C329.825 502.31 331.405 487.99 330.635 476.64C329.075 453.85 324.765 437.9 323.195 426.54C343.515 425.3 379.805 422.46 386.775 422.63C415.465 423.3 437.425 418.02 445.535 420.83C472.185 430.07 576.105 443.04 566.165 457.52H566.155Z" fill="black" fill-opacity="0.3"/>
</g>
<path d="M105.38 105.803C106.89 105.733 105.8 104.023 106.64 103.623C107.2 104.073 107.81 106.653 108.89 105.973C109.16 105.803 111.34 101.573 112.14 100.543C118.8 92.0727 134.81 79.8827 145.69 79.2427C148.54 79.0727 152.5 80.8827 154.17 80.5327C156.84 79.9827 162.74 73.9827 165.31 72.1127C170.51 68.3127 184.45 58.7027 190.77 60.8327C194.96 62.2427 195.24 70.7427 195.77 70.9627C196.3 71.1827 204.56 66.1827 205.86 65.5427C216.44 60.3427 231.91 53.9327 243.75 57.3727C247.36 58.4227 247.71 61.4027 248.01 61.4927C248.5 61.6327 256.04 58.8127 257.67 58.5027C258.86 58.2827 264.68 56.9527 263.27 58.8227C264.13 56.9627 268.9 58.3927 270.59 58.9427C273.65 59.9527 276.56 62.0227 278.14 64.9227C278.7 65.9427 279.19 68.5427 279.34 68.6727C279.9 69.1327 291.16 65.4127 293.36 65.1227C301.84 63.9927 309.69 66.1227 315.02 73.1527C314.97 79.5927 311.95 82.3827 306.94 85.4127C306.28 85.8127 304.82 85.7027 303.78 86.5427C302.67 87.4327 300.65 90.7827 299.04 92.2727C297.65 93.5627 295.7 94.4727 294.49 95.5927C289.71 100.003 286.15 105.663 278.85 106.183L265.06 104.503C261.28 111.213 255.47 120.143 247.89 122.693C244.08 123.973 238.14 124.163 234.06 124.193C233.02 124.193 231.67 123.353 230.77 123.513C230.13 123.623 229.27 124.833 228.54 125.113C220.32 128.353 216.8 131.023 207.55 128.373C200.47 126.353 198.33 123.223 193.4 118.353C192.95 117.903 193.09 117.173 193.04 117.133C192.63 116.813 184.41 119.163 182.82 119.233C180.8 119.323 177.42 118.223 176.02 118.413C174.78 118.583 167.79 122.973 165.31 123.823C159.72 122.193 152.95 124.543 147.63 124.343C144.45 124.223 139.19 120.123 136.91 117.903C136.33 117.343 135.81 115.923 135.7 115.873C135.31 115.683 129.17 117.953 127.37 118.173C117.92 119.333 104.27 119.403 105.36 105.773L105.38 105.803ZM202.7 100.663C201.37 99.3727 198.21 104.163 199.24 105.283C199.44 105.503 202.29 104.013 202.4 103.793C202.47 103.653 202.82 100.773 202.7 100.663Z" fill="#278A58"/>
<path d="M12.73 263.473C15.86 262.593 17.22 260.573 19.66 258.843C26.59 253.933 36.91 247.253 45.63 247.803C47.72 247.933 52.42 249.943 53.56 249.753C55.41 249.443 64.62 242.463 67.48 241.003C70.68 239.363 77.07 236.553 80.6 236.923C85.74 237.463 85.72 243.823 89.38 245.033C92.48 246.053 98.73 244.153 103.06 245.053C106.62 245.793 111.09 249.723 112.93 250.063C114.77 250.403 118.75 248.993 121.12 249.013C123.63 249.033 130.67 250.543 132.6 252.083C133.66 252.923 134.95 255.653 135.34 255.823C136.61 256.383 140.31 255.763 141.97 255.913C149.87 256.673 163.23 257.593 157.39 269.363C154.21 271.073 151.7 271.273 148.72 272.513C143.93 274.503 146.09 275.693 143.74 278.723C140.6 282.763 131.45 282.063 126.81 281.863C122.97 281.693 123.04 279.643 119.5 282.943C115.49 286.673 114.56 288.713 109.14 291.523C100.99 291.503 92.78 293.163 84.63 292.873C84.31 292.863 83.85 292.693 83.45 292.653C83.65 291.573 82.11 292.443 81.8 292.443C81.57 292.443 81.32 292.483 81.09 292.453C80.67 291.593 78.83 291.353 78 291.063C76.94 290.683 73.86 289.023 73.62 289.003C72.36 288.883 68.35 290.563 66.52 290.733C62.53 291.103 51.4 288.753 48.43 285.893C47.31 284.823 46.55 282.263 46.36 282.183C45.74 281.923 35.27 283.423 32.95 283.133C26.56 282.343 28.11 275.393 27.28 274.573C27.08 274.373 23.03 273.873 21.78 273.403C18.17 272.043 13.8 268.753 12.98 264.703C13.38 264.283 13.29 264.143 12.74 264.223C12.72 263.993 12.74 263.743 12.73 263.503V263.473Z" fill="#278A58"/>
<path d="M298.68 193.133C295.22 196.653 281.75 203.343 276.88 204.613C273.59 205.473 269.38 205.513 266.25 206.893C261.67 208.923 260.13 213.813 253.72 214.993C244.36 216.723 235.24 214.373 226.32 212.063C221.88 210.913 220.08 209.553 214.85 209.593C209.57 209.633 202.25 213.033 197.67 209.833C194.61 207.693 196.12 204.823 195.51 203.933C195.35 203.703 190.98 203.563 190.1 203.393C185.85 202.613 182.84 201.993 178.66 201.493C172.33 200.733 170.15 191.653 174.52 186.923C181.73 187.133 189.93 186.013 197.03 186.813C198.78 187.013 204.4 189.113 204.8 189.053C209.17 188.373 218.99 174.033 225.06 171.413C231.29 168.733 232.48 172.163 236.66 172.003C240.2 171.873 243.25 168.603 247.94 168.943C249.52 169.053 254.59 170.863 255.96 171.743C257.76 172.893 259.99 176.873 261.38 177.273C264.52 178.173 271.6 176.263 276.06 176.983C279.55 177.543 281.51 179.453 284.57 180.733C290.9 183.393 297.91 184.303 298.67 193.133H298.68Z" fill="#278A58"/>
<path d="M265.26 120.103C268.21 117.253 269.94 119.563 271.86 119.423C273.7 119.283 284.11 114.523 287.04 113.583C293.68 111.453 299.75 109.133 306.76 111.753C309.78 112.883 309.72 114.323 311.57 115.493C318.32 119.743 335.87 105.223 341.25 115.543C342.06 117.103 341.23 118.623 343.35 119.193C348.52 120.573 363.57 116.493 367.38 122.743C368.04 123.823 368.28 126.283 368.42 126.413C368.79 126.743 376.71 124.883 378.18 124.803C381.19 124.643 384.11 125.083 387.05 125.633C388.16 134.883 380.79 138.953 372.74 139.093C370.81 139.123 364.85 137.613 364.02 137.773C363.64 137.843 360.86 141.293 359.92 142.033C356.34 144.843 351.42 146.613 346.93 146.953C344.35 147.153 339.91 146.353 338.02 146.643C336.56 146.873 333.14 149.273 331.51 149.943C323.94 153.053 315.43 155.473 307.22 153.273C300.84 151.563 298.73 145.893 293.21 143.593C285.18 140.243 280.51 145.103 273.43 137.773C272.58 136.893 272.31 135.553 271.39 134.793C270.2 133.813 268.75 133.953 267.51 133.263C263.09 130.813 261.49 123.763 265.27 120.113L265.26 120.103ZM310.46 145.353C309.04 143.373 306.93 143.183 304.77 142.683C306.42 144.113 308.12 145.603 310.46 145.353Z" fill="#278A58"/>
<path d="M444.02 259.113C442.07 263.043 431.56 270.963 427.46 271.633C423.22 272.333 419.31 271.213 414.16 272.343C401.87 275.033 389.86 283.473 377.2 285.893C373.08 284.403 370.38 282.813 366.12 281.303C364.52 280.743 363.26 279.283 361.92 278.883C355.87 277.063 343.94 280.343 339.29 274.833C338.72 274.153 338.91 273.223 338.65 273.013C338.41 272.803 335.62 272.743 334.77 272.503C319.68 268.203 326.81 255.743 338.29 252.553C339.49 252.223 343.69 252.023 343.89 251.813C343.96 251.733 343.81 250.293 344.02 249.683C344.73 247.623 348.86 243.883 350.84 243.523C356.26 242.553 363.13 248.473 367.31 248.323C374.17 248.083 388.53 236.873 396.56 242.703C397.8 243.603 398.58 245.733 399.87 246.063C401.55 246.493 404.57 246.253 406.7 246.693C411.72 247.743 416.13 250.143 420.77 251.193C429.23 253.113 437.79 250.763 444.01 259.113H444.02Z" fill="#278A58"/>
<path d="M567.76 145.143C566.59 147.853 564.2 150.103 561.34 150.753C560.59 150.923 556.94 150.933 556.77 151.093C556.66 151.193 556.58 152.973 555.97 153.973C553.83 157.473 544.46 158.773 540.76 158.523C537.06 158.273 534.35 156.123 530.85 157.793C524.67 160.733 524.08 164.203 515.13 164.983C509.47 165.483 509.16 163.913 505.16 163.213C504.14 163.033 501.94 163.433 500.53 163.213C498.72 162.933 495.75 161.013 495 160.963C494.01 160.903 488.86 162.623 486.78 162.763C483.32 163.003 478.88 162.943 476.02 160.653C474.63 159.543 473.45 156.563 473.22 156.473C472.48 156.183 460.1 157.673 457.46 157.463C452.05 157.043 445.62 153.223 445.87 147.063C450.07 148.143 451.78 145.013 455.03 142.973C463.09 137.903 483.65 127.623 492.82 128.833C495.83 129.233 498.57 132.473 499.76 132.513C504.43 132.673 513.73 123.703 519.18 128.213C521.04 129.753 521.09 132.793 522.43 134.313C528.05 140.673 532.56 138.563 539.26 138.593C544.34 138.613 560.32 139.073 564.02 141.373C565.34 142.193 566.94 143.753 567.77 145.123L567.76 145.143Z" fill="#278A58"/>
<path d="M110.02 209.333C105.2 211.913 101.83 209.273 98.65 210.283C98.06 210.473 95.27 213.653 92.89 214.643L84.4 214.773C83.94 214.663 83.16 214.293 82.88 214.313C82.42 214.353 81.42 215.043 80.87 215.303L63.93 217.733C62.6 217.003 61.32 215.213 61.14 215.163C60.77 215.063 57.88 216.283 56.95 216.403C54.01 216.763 49.07 216.363 46.89 214.053C46.14 213.253 46.01 211.983 45.77 211.753C45.07 211.083 41.26 211.783 39.83 211.463C34.34 210.273 32.39 203.673 37.33 200.323C38.73 199.373 40.73 199.233 41.83 198.383C43.38 197.183 44.05 193.503 46.33 192.293C49.05 190.853 56.27 190.363 59.28 191.003C64.16 192.053 65.24 197.183 68.46 197.463C73.78 197.943 82 195.093 87.31 195.033C93.93 194.953 101.46 198.663 106.27 203.123C107.93 204.663 110.18 206.833 110.03 209.303L110.02 209.333Z" fill="#278A58"/>
<path d="M528.2 242.403C534.57 237.533 543.79 236.403 551.57 235.313C553.46 235.043 555.82 235.513 557.67 235.183C562.43 234.353 562.95 232.153 569.42 233.133C575.26 234.013 574.93 237.323 577.63 238.723C578.77 239.313 583.37 240.073 585.31 240.833C587.01 241.503 588.39 242.703 590.03 243.443C591.41 244.063 592.96 243.653 594.58 244.763C596.05 245.763 597.15 248.283 597.65 249.963C592.96 253.313 589.95 250.153 585.54 251.133C584.06 251.463 581.55 253.633 579.05 254.193C576.72 254.713 573.68 254.383 571.73 255.013C571.03 255.243 570.21 256.283 569.45 256.553C557.21 260.783 556.2 255.973 546.18 251.713C542.23 250.033 529.24 247.053 528.2 242.423V242.403Z" fill="#278A58"/>
<path d="M105.38 105.803C105.69 101.893 109.73 98.3427 112.43 95.8427C113.22 95.1127 117.06 92.6227 117.17 92.3527C117.25 92.1627 116.63 89.5727 116.68 88.6827C116.9 84.4127 121.99 76.5927 125.17 73.8727C131.84 68.1627 142.78 68.4127 150.65 64.0127C160.58 58.4627 166.36 44.4627 179.55 43.7927C183.78 43.5727 192.11 45.6727 195.6 45.2327C196.14 45.1627 200.19 42.7327 201.46 42.2627C207.8 39.9427 216.84 37.5827 223.56 37.8427C224.75 37.8927 227.31 38.8427 228.05 38.7327C228.33 38.6927 231.7 36.2727 232.97 35.7627C241.02 32.4827 256.59 31.2027 263.65 37.2227C264.54 37.9827 267.34 41.7227 267.62 41.8327C268.92 42.3327 272.03 41.7827 273.99 42.4627C275.53 42.9927 280.61 46.4827 281.68 47.8027C282.17 48.4127 282.76 50.2627 282.88 50.3227C283.21 50.5127 288.97 50.3827 290.4 50.5927C298.89 51.8427 315.09 63.8327 315.03 73.1727C309.7 66.1327 301.85 64.0127 293.37 65.1427C291.17 65.4327 279.91 69.1527 279.35 68.6927C279.2 68.5727 278.71 65.9627 278.15 64.9427C276.57 62.0427 273.66 59.9727 270.6 58.9627C268.9 58.4027 264.14 56.9827 263.28 58.8427C264.7 56.9827 258.87 58.3027 257.68 58.5227C256.05 58.8327 248.5 61.6527 248.02 61.5127C247.73 61.4227 247.38 58.4427 243.76 57.3927C231.92 53.9427 216.44 60.3627 205.87 65.5627C204.57 66.2027 196.31 71.2027 195.78 70.9827C195.25 70.7627 194.97 62.2627 190.78 60.8527C184.46 58.7227 170.52 68.3327 165.32 72.1327C162.75 74.0127 156.85 80.0127 154.18 80.5527C152.51 80.8927 148.55 79.0927 145.7 79.2627C134.82 79.8927 118.81 92.0827 112.15 100.563C111.34 101.593 109.16 105.823 108.9 105.993C107.82 106.673 107.21 104.103 106.65 103.643C105.81 104.043 106.9 105.753 105.39 105.823L105.38 105.803Z" fill="#25B86E"/>
<path d="M157.39 269.363C163.22 257.593 149.86 256.673 141.97 255.913C140.31 255.753 136.62 256.373 135.34 255.823C134.95 255.653 133.67 252.933 132.6 252.083C130.66 250.543 123.63 249.043 121.12 249.013C118.74 248.993 114.77 250.403 112.93 250.063C111.09 249.723 106.62 245.803 103.06 245.053C98.73 244.153 92.48 246.053 89.38 245.033C85.73 243.823 85.74 237.463 80.6 236.923C77.08 236.553 70.69 239.363 67.48 241.003C64.62 242.463 55.41 249.443 53.56 249.753C52.42 249.943 47.72 247.933 45.63 247.803C36.9 247.253 26.59 253.933 19.66 258.843C17.21 260.573 15.86 262.593 12.73 263.473C12.67 249.213 27.54 248.133 36.4 243.423C45.27 238.713 49.14 229.053 60.88 228.323C63.49 228.163 68.63 229.773 69.63 229.643C71.52 229.383 73.98 224.753 78.76 224.673C82.5 224.603 86.91 228.923 88.0201 228.873C88.2801 228.863 91.28 226.663 92.51 226.213C96.46 224.783 102.4 224.633 106.48 225.573C108.04 225.933 111.27 227.993 111.55 227.983C111.86 227.973 115.66 225.253 116.96 224.803C120.56 223.553 125.2 223.093 128.42 225.463L137.56 237.103C143.58 238.063 147.32 235.593 152.99 238.943C154 239.533 154.65 240.923 155.81 241.343C160.95 243.183 163.89 239.553 168.44 246.133C174.16 254.393 168.02 258.283 163.06 263.733C160.39 266.663 161.79 266.983 157.38 269.363H157.39Z" fill="#25B86E"/>
<path d="M265.26 120.103C267.39 115.253 271.87 114.883 275.69 113.013C277.56 112.103 278.12 110.803 280.32 110.013C282.55 109.213 286.85 109.273 288.28 108.653C288.57 108.523 289.56 106.643 290.04 106.133C293.96 102.023 299.36 98.2127 305.28 99.7627C303.87 99.8027 302.4 99.6927 301.04 100.193C300.74 100.303 298.59 101.673 299.77 101.783C300.95 101.893 305.27 100.233 306.94 100.463L305.52 99.7727C310.54 99.5127 313.07 99.0027 317.65 101.543C318.67 102.113 320.38 104.063 320.57 104.103C320.81 104.143 323.92 101.553 324.57 101.203C331.97 97.2427 343.24 99.0427 349.99 103.443C351.84 104.653 353.85 108.713 354.17 108.823C354.6 108.983 356.94 108.493 357.89 108.563C360.83 108.783 363.59 108.963 366.07 110.713C367.16 111.483 368.86 113.963 369.73 114.433C371.36 115.313 375.19 115.253 377.23 115.823C381.51 117.013 386.47 120.843 387.05 125.643C384.12 125.093 381.19 124.653 378.18 124.813C376.72 124.893 368.79 126.753 368.42 126.423C368.28 126.293 368.04 123.833 367.38 122.753C363.57 116.503 348.52 120.583 343.35 119.203C341.23 118.633 342.06 117.113 341.25 115.553C335.88 105.233 318.32 119.753 311.57 115.503C309.72 114.343 309.78 112.893 306.76 111.763C299.75 109.153 293.68 111.463 287.04 113.593C284.11 114.533 273.69 119.293 271.86 119.433C269.93 119.573 268.21 117.273 265.26 120.113V120.103Z" fill="#25B86E"/>
<path d="M567.76 145.143C566.93 143.783 565.33 142.223 564.01 141.393C560.31 139.093 544.34 138.633 539.25 138.613C532.55 138.583 528.04 140.693 522.42 134.333C521.08 132.813 521.02 129.763 519.17 128.233C513.72 123.723 504.42 132.693 499.75 132.533C498.56 132.493 495.82 129.243 492.81 128.853C483.64 127.643 463.08 137.923 455.02 142.993C451.77 145.033 450.06 148.163 445.86 147.083C446.24 137.613 457.49 137.693 463.43 135.213C468.45 133.113 467.54 131.423 470.81 128.303C472.57 126.623 478.75 122.513 481.01 122.043C482.51 121.733 484.86 122.113 485.64 121.893C486.16 121.743 487.08 120.283 487.69 119.883C492.84 116.553 500.24 115.203 506.09 117.343C508.05 118.063 509.59 120.153 510.71 120.543C511.01 120.643 511.43 120.073 511.81 120.123C512.12 120.163 512.22 120.803 512.96 120.753C514.93 120.603 517.45 119.313 519.83 119.243C535.33 118.783 535.11 130.673 546.49 132.253C549.78 132.713 552.75 132.083 556.21 132.773C562.25 133.973 571.13 137.363 567.76 145.173V145.143Z" fill="#25B86E"/>
<path d="M298.68 193.133C297.92 184.293 290.91 183.383 284.58 180.733C281.53 179.453 279.57 177.543 276.07 176.983C271.62 176.263 264.53 178.173 261.39 177.273C260 176.873 257.77 172.893 255.97 171.743C254.6 170.863 249.53 169.053 247.95 168.943C243.26 168.603 240.21 171.873 236.67 172.003C232.5 172.163 231.3 168.733 225.07 171.413C219 174.023 209.18 188.373 204.81 189.053C204.41 189.113 198.79 187.013 197.04 186.813C189.93 186.013 181.74 187.123 174.53 186.923C181.52 179.353 192.38 183.853 199.44 178.993C201.21 177.773 202.78 175.503 204.45 174.233C206.56 172.633 209.42 172.033 210.93 170.933C211.58 170.463 212.05 169.183 212.82 168.533C216.27 165.643 218.3 167.493 221.46 166.913C223.55 166.523 226.35 163.613 230.43 163.213C236.57 162.603 238.21 165.493 242.01 165.683C251.94 166.203 261.91 157.743 271.43 164.523C273.36 165.893 274.52 168.363 276.15 169.823C283.85 176.703 296.88 170.743 301.44 180.843C303.66 185.763 302.22 189.543 298.68 193.143V193.133Z" fill="#25B86E"/>
<path d="M444.02 259.113C437.8 250.753 429.25 253.113 420.78 251.193C416.14 250.143 411.74 247.743 406.71 246.693C404.58 246.243 401.56 246.493 399.88 246.063C398.59 245.733 397.81 243.603 396.57 242.703C388.53 236.883 374.17 248.093 367.32 248.323C363.15 248.463 356.28 242.543 350.85 243.523C351.02 236.333 358.11 235.453 363.72 236.703C365.02 236.993 368.31 238.463 369.06 238.433C370.34 238.383 371.96 236.403 373.31 235.773C379.46 232.913 385.8 231.623 392.39 233.663C394 234.163 400 237.603 400.45 237.633C400.72 237.653 404.02 235.423 405.2 235.083C408.15 234.243 411.56 234.093 413.96 236.383C415.33 237.693 419.37 244.503 420.85 245.013C422.19 245.473 431.11 244.353 433.75 244.643C438.75 245.193 446.03 251.873 445.11 257.243C444.96 258.103 444.27 258.603 444.02 259.123V259.113Z" fill="#25B86E"/>
<path d="M528.2 242.403C527.92 241.173 530.57 236.333 531.63 235.493C532.9 234.483 534.51 234.333 535.84 233.493C540.38 230.633 542.05 225.843 548.82 225.973C552.55 226.043 553.42 228.933 557.36 228.243C563.53 227.163 570.02 220.813 576.55 226.373C577.75 227.393 579.67 230.993 579.92 231.123C581.15 231.763 585.61 230.223 588.91 232.423C589.8 233.023 591.18 235.273 591.35 235.353C591.68 235.513 594.17 235.383 595.32 235.703C602.06 237.563 602.97 246.183 597.67 249.963C597.17 248.283 596.07 245.763 594.6 244.763C592.97 243.663 591.42 244.063 590.05 243.443C588.41 242.713 587.03 241.503 585.33 240.833C583.39 240.073 578.78 239.313 577.65 238.723C574.95 237.323 575.28 234.013 569.44 233.133C562.97 232.153 562.45 234.353 557.69 235.183C555.84 235.503 553.48 235.043 551.59 235.313C543.82 236.403 534.59 237.533 528.22 242.403H528.2Z" fill="#25B86E"/>
<path d="M110.02 209.333C110.17 206.853 107.92 204.683 106.26 203.153C101.46 198.693 93.9301 194.983 87.3001 195.063C81.9901 195.123 73.7701 197.973 68.4501 197.493C65.2301 197.203 64.1501 192.073 59.2701 191.033C56.2601 190.393 49.0301 190.873 46.3201 192.323C48.5501 189.543 51.9901 188.403 55.3401 187.853C56.4401 187.673 57.5101 188.293 58.5801 187.983C59.8401 187.623 60.9401 185.903 63.5801 185.583C67.5201 185.103 69.0401 187.053 71.1301 187.103C72.6601 187.143 76.7601 185.103 79.3301 185.053C83.3001 184.973 90.0901 187.623 93.5101 189.703C95.2801 190.783 97.5701 193.493 99.0701 194.113C103.67 196.003 108.8 194.383 112.92 199.813C115.25 202.873 113.03 207.733 110.01 209.343L110.02 209.333Z" fill="#25B86E"/>
<path d="M427.47 271.633C422.46 276.333 414.26 275.013 408.69 277.583C406.16 278.753 404.08 281.833 401.62 283.383C393.87 288.263 385.64 288.943 377.21 285.893C389.87 283.473 401.87 275.033 414.17 272.343C419.32 271.213 423.23 272.333 427.47 271.633Z" fill="#25B86E"/>
<path d="M109.15 291.523C101.8 295.333 96.24 295.823 88.16 294.423C87.38 294.293 85.02 293.723 84.64 292.873C92.78 293.163 101 291.503 109.15 291.523Z" fill="#25B86E"/>
<path d="M253.73 214.993C251.98 216.013 249.7 216.673 247.72 216.983C243 217.713 237.73 216.823 233.23 215.423C231.11 214.763 228.07 213.493 226.33 212.063C235.25 214.383 244.38 216.723 253.73 214.993Z" fill="#25B86E"/>
<path d="M80.86 215.323C75.39 217.953 70.17 221.213 63.92 217.753L80.86 215.323Z" fill="#25B86E"/>
<path d="M92.88 214.653C88.51 216.473 88.52 215.803 84.39 214.783L92.88 214.653Z" fill="#25B86E"/>
<path d="M65.27 291.053C66.1 291.353 67.94 291.593 68.36 292.443C67.73 292.373 65.55 291.813 65.27 291.053Z" fill="#25B86E"/>
<path d="M69.0601 292.433C69.3801 292.433 70.9101 291.573 70.7101 292.643C70.1601 292.593 69.5601 292.853 69.0601 292.433Z" fill="#25B86E"/>
<path d="M0 264.193C0.56 264.113 0.63999 264.253 0.23999 264.673C0.23999 264.643 0.03 264.573 0 264.193Z" fill="#25B86E"/>
<path d="M568.1 243.373C562.44 245.073 556.37 243.873 550.66 243.373C551.2 245.113 564.55 255.433 557.09 256.163C555.7 256.303 544.14 246.213 540.05 244.983C528.54 241.543 518.07 247.873 507.01 249.793C504.49 250.253 489.21 250.943 488.49 251.583C487.73 252.313 497.88 271.063 486.65 268.453C483.68 267.763 483.32 260.433 481.03 257.223C475.95 250.253 438.42 238.433 429.56 239.533C418.14 240.953 398.28 263.923 389.29 272.403C387.4 274.193 385.11 277.493 383.27 279.233C386.69 278.543 389.92 277.033 393.11 275.703C409.07 269.013 420.03 259.243 438.6 263.783C454.02 267.543 459.14 284.133 475.95 282.993C483.64 282.493 506.61 270.663 513.71 266.123C520.81 261.583 520.32 257.363 524.14 252.963C530.7 245.443 527.2 264.653 522.66 265.933C525.76 265.793 542.71 262.493 539.65 270.153C539.25 271.203 522.66 272.813 518.79 274.183C513.17 276.153 510.97 279.543 506.88 281.613C508.68 283.033 511.02 283.123 513.04 283.903C514.57 284.503 519.11 286.973 519.47 286.973C520.91 287.063 527.34 283.443 530.26 283.173C532.42 282.943 545.9 283.953 546.8 285.283C551.12 291.613 525.76 287.893 525 292.613C524.51 295.453 542.66 304.853 537.63 307.513C532.91 309.943 521.27 298.203 517.18 295.963C498.98 286.103 480.59 298.623 461.67 296.693C451.51 295.643 450.07 286.793 441.49 283.723C421.98 276.663 411.28 291.153 395.82 298.483C384.45 303.893 365.57 303.983 359.82 317.093C352.31 334.143 356.54 347.483 362.16 361.103C363.37 364.133 364.72 367.153 365.98 370.223C367.37 373.573 368.72 377.003 369.85 380.583C375.96 399.513 377.31 423.043 387.92 436.693C390.44 439.933 394.17 442.653 396.37 445.263C396.41 445.333 396.5 445.403 396.5 445.473C397.08 446.173 397.53 446.863 397.76 447.523C397.76 447.523 397.85 447.593 397.8 447.593C398.52 449.443 397.98 451.213 395.24 453.133C394.03 454.003 392.41 454.873 390.25 455.783C387.69 456.863 385.8 457.103 383.24 458.043C383.37 458.493 383.46 466.123 383.2 466.823C382.44 468.943 379.47 470.273 375.69 471.073C375.15 471.173 374.61 471.283 374.03 471.383C372.32 471.663 370.48 471.873 368.68 472.013C363.78 472.393 358.84 472.323 356.18 472.253C347.5 472.043 342.02 470.093 334.42 469.603C321.65 468.733 317.07 474.653 304.84 476.293L300.17 476.363L300.13 476.013C295.46 475.803 287.95 475.033 286.96 471.343C286.51 469.773 287.05 467.963 286.74 466.503C285.8 462.393 280.09 464.653 276 465.003C275.42 465.033 274.7 465.073 273.98 465.103C271.01 465.173 267.24 465.073 264.59 465.003H263.6C263.51 465.003 263.42 464.973 263.29 465.003C253.22 464.513 240.01 458.263 244.78 449.453C245.14 448.823 245.45 448.203 245.77 447.603C251.3 437.363 256.86 401.633 261.04 390.033C270.48 363.843 277.56 355.863 270.22 332.483C260.58 301.783 227.16 307.773 201.9 305.623C192.87 304.893 190.39 300.853 180.05 304.433C178.43 305.033 170.61 309.063 169.04 310.113C166.43 311.813 157.85 323.453 155.69 317.083C153.49 310.533 165.26 302.323 169.94 299.623C171.74 298.613 180.01 295.913 180.28 295.403C180.82 294.393 173.4 286.423 172.05 285.273C141.98 258.913 122.52 275.463 90.51 281.283C86.96 281.923 73.02 284.633 71.77 280.783C69.97 275.333 82.47 276.653 87.01 275.003C89.26 274.133 93.4799 272.663 91.2399 270.103C87.3699 265.753 65.53 266.203 58.29 264.693C55.95 264.193 41.1599 260.243 45.9299 256.123C47.9999 254.293 62.97 261.573 67.01 259.703C64.72 258.233 56.04 247.193 62.78 246.733C64.8 246.553 68.53 253.153 71.64 255.303C78.07 259.653 83.69 258.233 90.61 261.033C92.72 261.863 95.42 264.013 97.85 265.613C98.61 266.073 99.2899 266.483 99.9599 266.803C100.63 267.083 101.26 267.303 101.8 267.353C107.42 267.813 118.75 262.493 123.6 259.283C115.78 247.593 109.53 242.693 95.28 243.333C91.01 243.563 75.37 249.663 80.04 241.543C81.88 238.243 91.19 236.863 94.69 236.593C96.49 236.453 104.89 237.643 105.79 236.913C106.15 236.683 101.52 229.903 101.07 229.443C93.47 221.463 77.6499 224.543 67.4899 220.323C65.3799 219.453 56.93 213.443 56.25 211.613C55.76 210.333 55.5299 207.073 57.3699 206.983C58.2199 206.983 68.29 213.493 71.53 214.643C77.15 216.573 83.5299 217.673 89.4599 217.993C87.9299 216.113 87.08 214.463 85.32 212.763C83.39 210.883 76.4199 207.533 76.1499 207.033C75.0299 205.103 77.23 203.683 79.07 203.683C85.54 203.683 92.46 209.823 96.91 213.993C101.58 218.253 105.54 223.983 109.45 229.303C110.75 231.093 112.06 232.833 113.32 234.433C114.62 236.033 115.93 237.553 117.23 238.883C117.63 239.293 118.08 239.713 118.53 240.123H118.57C123.69 244.613 121.63 240.303 124.91 235.723C127.16 232.563 132.96 226.693 137 226.373C145.63 225.593 138.21 229.213 136.33 231.413C134.85 233.153 132.55 236.313 131.75 238.473C127.66 249.203 132.24 258.273 143.75 259.793C146.36 260.163 148.78 260.343 151.12 260.483C158.22 260.943 164.65 261.123 172.52 264.703C173.82 265.303 175.13 266.033 176.39 266.903C185.2 272.953 192.93 284.783 202.64 287.763C210.42 290.143 227.9 284.643 238.37 284.873C239.54 284.923 240.71 284.963 241.79 285.103C245.12 285.423 248.08 286.113 251 286.843C251.99 287.123 252.98 287.343 253.92 287.573C255.9 288.073 257.88 288.533 259.94 288.903C260.97 289.043 262.05 289.223 263.13 289.313C263.94 282.023 265.78 282.803 260.34 275.883C250.18 262.863 233.15 256.403 217.14 257.773C200.28 259.243 191.88 270.603 180.91 251.493C172.59 237.143 170.03 222.243 153.67 213.173C143.42 207.493 130.75 209.553 121.44 204.553C114.11 200.613 100.36 182.783 102.56 173.843C102.6 173.663 104.76 170.593 104.99 170.593C108 170.873 115.64 197.773 129.17 198.963C130.16 199.053 138.79 198.463 139.15 198.093C140.54 196.623 133.35 188.143 131.87 186.773C119.01 174.853 111.1 175.453 114.92 152.943C116.27 144.833 118.88 142.123 120.04 152.303C121.25 163.163 117.34 169.033 128.67 176.963L128.71 164.223C129.16 161.383 130.64 153.083 134.78 153.863C139.36 154.693 134.74 162.023 134.38 165.043C133.12 176.363 141.21 190.533 150.43 196.353C152.32 197.543 154.07 198.503 155.64 199.283C156.72 199.833 157.75 200.293 158.74 200.753C164.22 203.233 168.85 204.923 176.14 211.803C177.94 204.333 183.74 194.753 182.84 186.913C182.48 184.023 177.49 176.463 175.56 174.083C173.09 171.103 161.81 162.393 161.27 160.243C159.7 153.183 169 160.333 170.66 161.393C171.87 163.733 170.93 165.243 173.49 163.273C180.59 168.453 187.92 175.373 190.35 184.173C190.98 186.553 191.74 190.403 191.88 192.793C194.98 186.243 219.48 196.143 210.13 198.793C206.31 199.843 197.5 195.763 192.02 200.493C190.58 201.733 184.96 222.773 185.28 225.383C185.73 228.913 192.92 240.463 195.98 242.483C200.03 245.143 206.09 244.363 212.25 242.983C213.33 242.703 214.41 242.483 215.49 242.203C216.57 241.923 217.6 241.653 218.64 241.423C219.67 241.143 220.71 240.923 221.7 240.693C222.73 240.513 223.68 240.323 224.62 240.143C225.07 240.053 225.52 240.003 225.97 239.963C226.42 239.913 226.87 239.913 227.27 239.873C230.42 239.693 233.74 240.013 237.2 240.703C239.94 241.253 242.77 242.033 245.61 242.993C245.88 243.083 246.19 243.173 246.46 243.313C250.91 244.873 255.36 246.893 259.5 249.093C263.95 251.383 268.09 253.903 271.59 256.293C277.61 260.373 282.83 266.653 288.76 270.733C289.75 271.423 290.74 272.063 291.82 272.563C292.85 273.113 293.89 273.573 295.01 273.943V273.893C293.89 230.853 260.98 240.663 238.73 219.023C226.19 206.833 223.67 194.133 215.81 180.103C204.75 160.253 181.02 156.033 170.19 135.733C165.02 126.103 164.66 115.193 160.48 106.393C159.09 103.503 149.96 94.1527 155.04 92.2327C161.15 89.9427 164.34 98.6927 166.46 102.773C171.81 113.043 172.71 122.113 179.09 132.293C179.49 132.933 179.99 133.573 180.57 134.263C181.65 135.593 183 136.963 184.08 138.203C184.62 138.843 185.11 139.443 185.43 139.993C184.4 135.643 189.16 127.163 188.94 123.903C188.9 122.753 185.03 116.523 184.27 114.143C182.79 109.653 177.98 90.1227 185.03 88.6527C188.85 87.8227 186.96 98.1427 187.37 101.123C187.59 102.953 191.15 114.733 192.36 114.873C196.14 115.333 198.11 83.2927 205.17 81.5927C210.7 80.2127 205.08 92.1827 204.59 95.4327C204.36 95.4127 203.69 100.433 203.74 100.753C204.55 115.463 193.4 128.483 196.41 142.923C197.94 150.483 206.38 151.743 212.92 155.363C213.01 155.363 213.52 155.093 213.9 154.883C214.26 154.423 215.6 147.083 215.64 145.943C216.13 138.383 213.75 129.393 213.89 122.013C214.02 114.453 222.12 84.2427 230.3 82.7327C238.48 81.2627 228.01 96.4427 226.93 99.2827C225.13 104.003 223.87 109.363 223.29 114.413C222.3 122.483 222.93 129.083 223.96 135.863C224.27 138.013 224.63 140.263 225.04 142.553C225.4 144.843 225.76 147.183 226.12 149.703C226.3 150.893 226.39 152.183 226.48 153.463C226.52 154.793 226.61 156.163 226.66 157.593C227.02 165.933 227.51 175.103 234.62 179.133C234.75 178.533 241 172.303 242.26 169.413C244.82 163.453 243.74 152.453 245.95 149.203C245.99 149.203 245.99 149.153 245.99 149.153C246.21 148.833 246.44 148.553 246.62 148.283C248.73 145.903 250.13 148.053 250.98 151.313C251.16 151.863 251.29 152.503 251.43 153.103C251.47 153.283 251.47 153.423 251.52 153.563C251.79 155.123 251.97 156.683 252.1 158.053C252.23 159.473 252.28 160.663 252.28 161.303C252.06 173.543 241.72 182.203 243.16 191.233C243.25 191.783 243.38 192.333 243.56 192.933C244.01 194.213 246.39 196.783 249.49 199.673C250.07 200.223 250.66 200.773 251.29 201.273C251.6 201.553 251.87 201.823 252.19 202.103C254.71 204.303 257.4 206.503 259.88 208.333C262.94 210.623 265.54 212.413 266.85 212.913C268.96 213.743 273.86 213.743 274.81 214.103C276.38 208.873 271.3 202.183 269.69 196.733C266.81 187.153 266.09 176.423 266 166.343C266 162.123 267.93 154.513 267.03 150.713C266.58 148.923 254.26 138.703 251.61 134.163C247.79 127.653 244.19 115.503 244.87 107.993C245.09 105.333 248.96 104.093 250.04 105.973C251.39 108.223 252.24 118.673 254 122.883C255.08 125.493 263.98 140.573 267.48 138.193C270.13 136.403 263.12 110.183 261.68 106.473C260.33 102.853 257.41 98.9527 255.79 95.1027C254.71 92.5827 247.25 77.5427 252.1 77.5027C257.9 77.4127 259.02 89.0527 262.53 92.1227C262.35 88.4127 268.91 71.6327 273.5 73.9727C276.47 75.4827 269.81 85.4327 269.1 88.1827C264.34 106.383 277.28 115.503 277.28 129.393C278.58 127.693 286.99 118.763 286.99 117.473C286.99 115.913 278.63 106.333 278.67 97.9027C278.71 95.6127 280.83 82.4127 284.83 88.0427C286.45 90.3827 284.7 100.973 288.16 107.433C291.89 114.443 292.88 112.433 294.59 106.053C297.47 95.5527 293.78 87.2127 296.07 79.0527C296.7 76.8527 298.18 71.4927 301.42 73.6927C302.32 74.2927 302.27 84.8727 302.63 87.3527C303.62 93.8127 305.96 97.4827 304.97 104.453C302.09 124.993 282.81 131.403 280.61 157.533C279.8 167.063 280.43 180.593 287.4 188.013C288.16 188.883 289.06 189.613 290.01 190.303V190.253C289.52 182.823 307.94 174.253 308.93 170.363C310.05 165.593 305.15 158.583 304.17 153.123C302.64 144.413 305.83 120.023 316.26 118.193C316.71 118.103 318.55 118.013 318.64 118.373C318.73 118.833 315.27 122.273 312.98 124.973C312.62 125.383 312.26 125.843 311.99 126.213C311.72 126.623 311.45 126.943 311.32 127.263C309.39 130.843 304.53 146.563 312.85 140.833C316.4 138.403 319.28 134.053 323.95 132.623C326.42 131.893 331.32 131.343 330.69 135.513C330.65 136.013 329.79 135.653 329.75 135.793C329.53 136.163 329.3 136.483 328.99 136.803C328.45 137.403 327.82 137.903 327.15 138.363C326.12 139.053 324.99 139.643 323.87 140.333C323.15 140.793 322.43 141.293 321.8 141.893C307.69 155.413 326.61 158.033 324.54 172.053C322.97 182.503 306.2 181.633 305.8 204.463C305.71 208.593 306.02 212.803 305.98 216.973C309.76 224.443 324.32 255.383 324.59 261.853C327.15 257.683 327.65 252.413 329.49 247.503C339.56 220.913 382.26 192.683 363.25 160.413C360.42 155.693 355.34 153.083 352.15 149.133C343.97 139.003 344.37 126.623 339.83 116.773C339.25 115.493 334.8 112.423 333.63 110.953C324.24 98.8927 323.52 84.4127 318.48 71.2127C315.06 62.1827 305.35 51.0427 302.52 43.0227C301.26 39.4027 302.25 34.5427 306.61 37.2927C309.35 38.9927 320.9 60.1227 323.47 64.2027C324.32 61.1727 325.54 57.5127 325.58 54.3027C325.62 49.9027 321.76 31.7927 322.12 30.4627C322.3 29.6827 323.92 28.3127 324.68 28.2127C328.82 27.6627 331.11 41.3227 331.69 44.3527C331.78 44.8127 331.87 45.2727 332 45.7727C332.27 46.7327 332.63 47.7427 332.9 48.7527C333.03 49.3027 333.12 49.8027 333.17 50.3527C334.47 66.1227 325.48 89.1327 340.05 101.003C340.59 96.7827 341.31 78.1327 349.17 79.1827C345.39 86.7427 343.42 91.9227 344.32 100.683C344.9 106.133 345.17 109.573 349.08 103.713C349.17 104.313 349.53 107.103 349.8 107.103C350.29 107.103 353.94 100.363 355.33 98.8027C357.04 96.8727 368.72 85.8727 370.79 89.4527C372.5 92.3827 367.15 95.2327 365.49 96.7427C352.9 108.113 351.74 123.883 361.44 137.863C362.52 139.373 363.73 140.663 365.04 141.893C366.97 143.723 369.09 145.333 371.15 147.023C372.5 148.173 373.8 149.363 375.02 150.693C375.65 151.383 376.19 152.073 376.73 152.843C377.85 143.813 384.55 124.653 384.64 118.283C384.82 108.423 374.8 99.3527 377.9 86.0627C378.53 83.4927 385.59 68.9627 387.61 76.1627C388.28 78.5027 383.16 85.2427 383.79 91.3827C383.97 93.0827 389.05 107.883 389.95 107.883C390.35 107.883 393.1 101.833 394.31 100.363C401.37 91.6527 414.36 82.9927 425.91 83.7727C429.46 84.0027 429.51 87.0227 426.63 88.7727C422.36 91.2927 416.29 91.3427 410.27 95.5527C404.97 99.2627 400.56 104.403 398.58 110.773C398.13 112.193 395.61 123.193 396.06 123.653C396.46 124.063 404.47 120.533 406.26 120.263C408.51 119.943 410.75 120.123 413 120.033C422.89 115.403 423.65 104.813 432.01 98.3927C435.83 95.4627 447.38 90.6027 440.51 98.9427C439.75 99.9027 439.03 100.733 438.4 101.463C437.14 102.933 436.11 104.123 435.21 105.223C434.76 105.773 434.31 106.323 433.91 106.873C433.51 107.423 433.1 107.973 432.7 108.573C431.44 110.363 430.14 112.513 428.25 115.903C426 119.893 418.63 126.033 427.67 122.683C431.22 121.403 435.94 118.003 438.32 115.023C438.99 114.193 446.95 98.4327 447.71 107.733C448.25 114.473 434.49 129.603 428.79 132.533C417.01 138.533 408.7 128.453 399.12 137.573C393.59 142.803 390.04 171.493 388.51 180.843C388.2 182.723 389.14 185.063 389 185.793V185.843C390.71 184.603 392.69 184.373 394.62 183.823C418.85 176.853 441.59 194.683 454.72 166.493C457.28 161.043 467.17 124.273 467.13 118.913C467.09 115.563 462.1 102.363 469.74 106.033C471.49 106.863 471.31 108.963 471.81 110.433C477.02 126.063 469.79 136.473 469.11 150.173C469.07 151.183 468.84 152.603 469.78 153.103C470 153.193 470.23 153.283 470.54 153.283C470.58 153.283 470.58 153.233 470.58 153.233C473.46 149.793 483.48 147.043 487.57 144.253C490.45 142.283 499.57 130.773 500.56 130.773C508.2 131.093 494.72 146.493 495.48 147.093C496.38 147.823 514.31 143.383 518.63 147.413C524.38 152.773 509.01 151.543 507.57 151.723C503.08 152.323 499.84 153.233 495.57 154.293C484.65 157.043 473.41 161.533 467.57 172.083L476.29 171.943C481.68 171.853 488.92 176.523 494.04 177.393C506.49 179.543 520.52 170.423 533.42 174.823C535.35 175.513 539.67 178.623 536.21 180.053C535.54 180.333 524.48 179.133 521.69 179.413C513.46 180.243 506.54 184.683 497.24 185.093C488.3 185.463 470.05 178.723 463.71 183.163C458.81 186.643 458.77 192.883 451.3 195.543C429.05 203.423 403.61 188.803 384.64 208.423V208.473H384.6C382.22 215.903 377.86 221.633 372.91 227.133C363.38 237.673 351.6 247.303 346.79 265.823C346.12 268.623 345.62 271.643 345.53 274.483C346.52 274.023 347.46 273.523 348.45 273.103C351.42 271.723 354.43 270.403 357.44 268.973C359.46 268.013 361.44 267.043 363.37 265.993C365.3 264.943 367.24 263.793 369.08 262.513C390.52 247.613 395.87 224.653 426.61 220.843C438.66 219.373 439.74 222.083 449.8 223.683C458.74 225.103 468.77 223.863 475.56 217.453C476.28 216.763 476.95 215.983 477.63 215.163C478.3 212.733 478.93 210.813 478.98 208.193C479.02 205.213 475.74 192.283 476.28 191.463C479.79 186.333 484.96 199.803 484.96 202.323L485.14 213.603C490.58 211.723 496.87 199.303 500.47 197.283C502 196.413 505.91 195.903 505.46 198.883C504.02 209.063 483.48 222.073 476.2 228.633C475.39 230.783 476.47 232.663 477.46 234.413C489.28 238.313 489.46 238.673 501.51 233.543C508.66 230.513 515.04 225.933 520.66 220.523C522.41 218.823 530.1 207.143 529.6 217.453C529.29 224.373 519.22 232.163 514.77 236.703C533.74 232.673 552.57 238.673 571.59 239.133C573.07 242.483 570.65 242.613 568.17 243.353L568.1 243.373Z" fill="#423936"/>
<path d="M349 103.723C345.1 109.583 344.83 106.153 344.25 100.653C343.35 91.9226 345.32 86.7226 349.1 79.2026C354.54 79.9426 348.77 88.4126 348.4 91.5226C348 94.9126 348.36 100.323 349 103.723Z" fill="#685B58"/>
<path d="M313.21 131.553C312.39 134.433 311.66 137.973 312.78 140.843C304.49 146.563 309.33 130.853 311.26 127.253C312.54 124.883 318.66 118.953 318.58 118.373C318.52 117.993 316.65 118.103 316.22 118.193C325.14 116.183 314.4 127.543 313.22 131.553H313.21Z" fill="#685B58"/>
<path d="M173.5 163.233C170.93 165.203 171.86 163.703 170.64 161.373C171.71 162.053 172.41 162.443 173.5 163.233Z" fill="#685B58"/>
<path d="M381.38 452.493C370.32 424.113 338.77 389.233 338.95 344.583C339.13 301.673 358.05 302.733 383.27 279.213C385.11 277.473 387.41 274.173 389.29 272.383C376.52 280.953 360.93 285.443 347.94 293.283C288.52 329.223 318.9 430.093 301.28 473.203C300.92 474.143 300.52 475.053 300.11 475.953V476.333H300.15L304.82 476.263C317.05 474.623 321.63 468.703 334.4 469.573C332.96 467.723 335.07 466.233 335.57 464.523C335.93 463.343 336.2 462.153 336.42 460.973C341.5 434.223 313.99 399.943 320.73 360.703C321.09 358.773 323.88 347.773 326.98 348.873C328.01 349.193 326.89 367.483 327.07 370.283C329.27 403.563 349.59 434.223 354.4 458.953C354.85 461.183 354.98 463.413 355.16 465.673C355.38 467.863 355.61 470.063 356.15 472.223C358.8 472.293 363.75 472.363 368.65 471.983C370.45 471.843 372.29 471.633 374 471.353C374.58 471.253 375.12 471.143 375.66 471.043C379.44 470.243 382.4 468.923 383.17 466.793C383.44 466.093 383.35 458.473 383.21 458.013C382.67 456.133 382.04 454.283 381.37 452.473L381.38 452.493ZM327.99 434.793C329.97 440.613 331.99 455.723 325.02 459.833C314.5 466.063 317.38 450.953 317.02 447.673C316.57 443.633 311.67 424.063 317.29 422.703C322.59 421.413 327.04 431.963 327.99 434.793Z" fill="#685B58"/>
<path d="M190.33 184.143C190.99 186.533 191.75 190.373 191.88 192.773C192.01 195.233 190.64 198.093 192 200.463C190.57 201.683 184.97 222.743 185.29 225.343C185.73 228.863 192.91 240.423 195.97 242.453C203.49 247.423 218.17 240.323 227.25 239.813C241.46 239.013 259.83 248.313 271.57 256.253C279.61 261.683 286.19 271.063 295 273.873C295.31 286.723 301.28 291.033 303.78 302.493C307.29 318.593 302.34 323.893 299.86 338.113C292.81 378.633 290.2 425.413 288.87 456.773L286.72 466.493C285.79 462.383 280.08 464.653 275.99 464.973C272.54 465.243 266.68 465.133 263.3 464.973C265.32 465.083 264.49 464.943 264.68 464.043C268.54 445.853 272.98 419.393 279.24 395.313C281.77 385.583 285.58 381.233 287.95 371.843C291.44 358.003 292.95 339.063 292.01 323.663C290.48 298.343 284.6 282.453 265.65 265.893C257.57 258.833 236.56 249.063 226.02 248.953C214.1 248.823 201.42 259.423 189.05 251.203C183.79 247.713 174.9 220.283 164.35 210.743C159.79 206.613 150.51 203.383 150.45 196.293C160.57 202.683 165.61 201.763 176.15 211.763C177.8 213.323 179.29 215.703 181.18 216.503C182.97 209.323 186.6 201.753 187.55 194.383C188.04 190.563 185.62 182.643 190.35 184.123L190.33 184.143Z" fill="#685B58"/>
<path d="M289.95 190.263C290.17 193.103 303.39 211.903 305.92 216.943C309.67 224.433 324.26 255.363 324.52 261.863C324.77 267.963 319.5 276.763 315.12 280.753C314.34 281.463 309.53 285.183 308.84 284.713C308.06 284.193 307.07 268.753 306.51 265.913C304.68 256.723 293.1 237.303 286.18 231.353C273.78 220.683 257.14 223.223 242.08 207.143C222.49 186.223 221.21 169.033 219.43 141.563C219.16 137.473 218.6 114.233 219.72 111.633C219.84 111.363 224.07 106.773 223.23 114.363C221.6 127.663 224.39 136.913 226.11 149.683C227.4 159.223 225.08 173.683 234.59 179.113C234.28 180.633 236.26 184.813 237.94 183.843C238.63 183.443 245.5 171.053 246 169.783C248.49 163.443 249.29 155.243 245.93 149.103C250.96 141.733 252.28 158.183 252.23 161.253C252.03 174.253 240.36 183.283 243.54 192.893C244.76 196.593 262.66 211.293 266.81 212.883C268.93 213.693 273.84 213.683 274.75 214.063C277.22 215.093 289.3 223.763 291.38 221.973C291.86 221.553 286.64 211.973 286.01 210.283C276.46 184.733 268.46 155.463 284.1 130.693C288.24 124.143 294.55 120.783 297.29 112.473C301.67 99.1826 296.76 86.2426 301.4 73.6726C302.27 74.2726 302.22 84.8226 302.6 87.3126C303.58 93.7826 305.91 97.4526 304.94 104.413C302.07 124.963 282.77 131.363 280.57 157.523C279.68 168.113 280.54 183.663 289.96 190.253L289.95 190.263Z" fill="#685B58"/>
<path d="M477.58 215.203C474.79 225.483 465.27 227.693 465.05 228.633C464.97 228.963 470.02 232.513 470.44 232.723C472.86 233.943 475.62 233.863 477.4 234.443C489.23 238.313 489.41 238.703 501.44 233.583C499.63 239.643 486.97 244.233 481.6 243.833C466.05 242.663 452.11 224.943 432.68 226.473C406.5 228.523 400.63 245.503 384.41 260.693C365.63 278.263 349.76 281.433 329.71 293.283C326.58 295.133 311.99 309.213 315.25 295.083C317.04 287.303 338.88 277.783 345.47 274.523C353.2 270.703 361.63 267.643 369.02 262.513C390.48 247.613 395.82 224.673 426.56 220.883C438.6 219.403 439.69 222.093 449.77 223.693C459.71 225.273 470.91 223.553 477.58 215.203Z" fill="#685B58"/>
<path d="M399.05 137.563C393.51 142.813 389.97 171.503 388.46 180.843C388.16 182.723 389.06 185.073 388.94 185.823C387.92 192.013 386.4 202.823 384.57 208.493C377.6 230.083 354.05 237.603 346.76 265.843C343.01 266.223 338.01 270.123 336.81 263.853C333.49 246.623 364.93 218.503 372.15 202.603C379.16 187.153 379.75 170.863 383.63 155.223C385.7 146.873 390.22 138.773 399.06 137.553L399.05 137.563Z" fill="#685B58"/>
<path d="M131.73 238.453C127.64 249.173 132.25 258.263 143.73 259.793C154.08 261.173 162.02 259.903 172.54 264.663C183.02 269.413 191.58 284.343 202.63 287.733C210.39 290.113 227.91 284.623 238.34 284.853C247.85 285.063 254.34 288.443 263.15 289.293C262.84 292.213 269.97 299.423 261.65 300.393C256.86 300.953 247.4 295.333 241.63 294.103C219.1 289.313 208.88 306.233 186.48 287.133C181.43 282.833 178.14 275.233 172.19 271.883C159.9 264.953 146.13 269.673 134.22 261.013C126.48 255.393 120.69 244.123 131.74 238.463L131.73 238.453Z" fill="#685B58"/>
<path d="M395.23 453.113C394.02 453.983 392.4 454.853 390.24 455.763C389.39 454.473 388.58 453.153 387.86 451.793C383.46 444.093 380.44 435.873 376.26 428.183C364.75 406.973 342.14 356.323 354.19 325.513C355.27 322.713 357.2 318.683 359.81 317.083C352.3 334.133 356.53 347.473 362.15 361.093C363.36 364.123 364.71 367.143 365.97 370.213C367.36 373.563 368.71 376.993 369.84 380.573C375.95 399.503 377.3 423.033 387.91 436.683C390.43 439.923 394.16 442.643 396.36 445.253C396.4 445.323 396.49 445.393 396.49 445.463C397.07 446.163 397.48 446.823 397.75 447.513C397.75 447.513 397.84 447.583 397.79 447.583C398.46 449.393 397.97 451.203 395.23 453.123V453.113Z" fill="#685B58"/>
<path d="M393.12 275.693C409.08 269.013 420.05 259.243 438.59 263.773C454.03 267.543 459.13 284.113 475.96 282.993C483.65 282.483 506.62 270.633 513.72 266.093C517.1 272.183 496.26 278.243 498.92 282.153C499.89 283.583 505.39 282.343 506.88 281.593C508.67 283.033 511 283.133 513.05 283.903C513.82 285.673 526.92 293.003 521.01 293.893C518.45 294.283 512.18 289.333 509.13 288.263C489.78 281.463 472.5 295.313 452.36 283.973C447.6 281.293 444.73 276.243 440.4 273.593C421.91 262.313 411.24 283.663 393.12 275.693Z" fill="#685B58"/>
<path d="M329.68 135.763C327.93 138.673 324.27 139.463 321.74 141.893C307.63 155.413 326.54 158.033 324.45 172.043C322.89 182.503 306.12 181.613 305.72 204.443C301.24 201.733 299.09 198.113 298.73 195.923C296.47 181.883 318.19 178.743 315.8 162.333C315.35 159.253 312.64 155.833 312.51 153.043C312.19 146.333 322.58 134.603 329.67 135.773L329.68 135.763Z" fill="#685B58"/>
<path d="M410.2 95.5327C404.87 99.2527 400.48 104.383 398.51 110.733C398.07 112.153 395.55 123.183 396.01 123.653C396.39 124.043 404.42 120.513 406.22 120.253C408.44 119.933 410.71 120.093 412.93 120.023C413.58 120.003 415.43 121.113 416.91 120.903C424.71 119.833 429.62 96.2326 440.44 98.9026C434.18 106.453 433.22 106.873 428.16 115.893C425.94 119.853 418.55 126.003 427.59 122.673C422.19 129.933 412.08 124.803 404.03 126.143C401.32 126.593 389.18 133.013 388.59 132.423C387.13 130.953 396.47 104.633 398.3 101.533C400.6 97.6427 405.43 92.6827 410.2 95.5327Z" fill="#685B58"/>
<path d="M394.56 183.803C418.79 176.843 441.5 194.673 454.67 166.503C458.57 174.623 450.17 184.473 442.82 186.753C433.22 189.733 417.5 186.573 407.13 187.463C401.67 187.933 386.37 195.483 394.56 183.803Z" fill="#685B58"/>
<path d="M365.41 96.7227C352.86 108.083 351.67 123.883 361.4 137.823C365.61 143.863 372.43 146.783 376.64 152.813C376.48 154.073 376.61 162.063 376.31 162.433C374.31 164.933 370.61 155.303 370.28 154.863C368.27 152.183 362.22 148.133 359.3 144.913C341.89 125.723 348.5 111.803 365.41 96.7126V96.7227Z" fill="#685B58"/>
<path d="M331.6 44.3527C331.94 46.1727 332.91 48.1827 333.09 50.3527C334.4 66.1127 325.43 89.1127 340 100.973C339.34 106.093 338.84 107.723 334.39 103.703C321.73 92.2527 327.41 69.3726 328.92 55.2026C329.28 51.8326 327.11 44.8327 331.6 44.3527Z" fill="#685B58"/>
<path d="M495.52 154.313C484.56 157.073 473.37 161.563 467.49 172.073L476.21 171.933C481.62 171.843 488.85 176.553 493.98 177.423C487.92 180.793 482.66 177.803 476.7 176.783C472.51 176.073 466.26 178.023 463.99 173.053C461.01 166.523 475.83 156.903 480.8 154.683C486.44 152.163 489.39 152.333 495.51 154.303L495.52 154.313Z" fill="#685B58"/>
<path d="M203.69 100.723C204.49 115.423 193.37 128.443 196.36 142.873C197.93 150.433 207.19 151.903 212.99 155.333C212.4 155.813 210.3 158.153 209.87 158.253C206.44 159.083 194.23 151.023 192.5 147.903C188.85 141.343 192.45 130.903 195.68 120.923C197.9 114.043 199.62 103.923 201.28 99.7827L203.69 100.713V100.723Z" fill="#685B58"/>
<path d="M123.55 259.263C124.31 260.393 125.74 259.533 124.11 263.373C122.17 267.963 107.13 272.643 102.8 272.083C101.21 271.883 97.75 268.233 95.38 267.143C88.25 263.853 80.64 262.193 73.52 257.893C72.27 257.133 70.58 256.993 71.6 255.273C78 259.653 83.66 258.223 90.54 260.993C93.96 262.363 98.8 267.083 101.74 267.323C107.36 267.783 118.71 262.463 123.54 259.263H123.55Z" fill="#685B58"/>
<path d="M185.42 139.963C186.61 141.893 186.42 144.253 184.21 144.723C180.64 145.473 170.9 129.733 169.71 126.443C165.93 105.603 158.94 100.053 160.02 98.4626C161.1 96.8726 166.45 102.743 166.45 102.743C171.79 112.973 172.69 122.053 179.05 132.233C180.65 134.803 184.06 137.773 185.41 139.963H185.42Z" fill="#685B58"/>
<path d="M470.51 153.263C469.33 154.713 468.34 161.423 465.27 160.513C457.66 158.273 471.09 129.403 471.02 125.113L470.88 115.973C470.86 114.633 468.35 112.193 471.74 110.433C476.96 126.083 469.69 136.453 469.05 150.173C468.99 151.393 468.64 153.233 470.51 153.253V153.263Z" fill="#685B58"/>
<path d="M269.06 88.1426C264.28 106.373 277.23 115.473 277.23 129.373C277.23 132.043 275.02 139.253 273.17 141.463L273 130.163C272.88 122.063 264.38 109.313 264.1 99.9226C264.01 96.9226 265.03 88.1226 269.07 88.1426H269.06Z" fill="#685B58"/>
<path d="M118.55 240.103C117.35 240.633 116.06 241.393 114.67 241.043C111.65 240.283 101.09 223.173 98.6301 219.783C98.2401 219.243 91.2601 212.573 92.8901 212.143C93.6401 211.943 96.7601 215.833 96.9301 214.003C105.16 221.633 111.37 233.793 118.55 240.113V240.103Z" fill="#685B58"/>
<path d="M349.01 103.713C345.11 109.573 344.83 106.143 344.26 100.643C343.35 91.9026 345.33 86.7126 349.11 79.1726C354.55 79.9226 348.77 88.3926 348.41 91.5026C348.02 94.8926 348.37 100.313 349.01 103.703V103.713Z" fill="#685B58"/>
<path d="M312.78 140.843C304.49 146.563 309.32 130.843 311.25 127.253C312.52 124.883 318.66 118.953 318.56 118.383C318.49 117.993 316.63 118.113 316.2 118.183C325.11 116.173 314.37 127.553 313.2 131.563C312.37 134.423 311.63 137.973 312.77 140.843H312.78Z" fill="#685B58"/>
<path d="M173.51 163.243C170.94 165.193 171.86 163.703 170.65 161.363C171.72 162.053 172.42 162.443 173.51 163.243Z" fill="#685B58"/>
<g opacity="0.2">
<path d="M390.24 455.763C387.68 456.843 385.79 457.083 383.23 458.023C383.36 458.473 383.45 466.103 383.19 466.803C381.12 472.583 362.47 472.413 356.18 472.233C347.5 472.023 342.02 470.073 334.42 469.583C321.65 468.713 317.07 474.633 304.84 476.273L300.17 476.343L300.13 475.993C295.46 475.783 287.95 475.013 286.96 471.323C286.51 469.753 287.05 467.943 286.74 466.483C285.8 462.373 280.09 464.633 276 464.983C272.85 465.223 267.55 465.053 264.27 464.983H263.6C263.51 464.983 263.42 464.953 263.29 464.983C253.22 464.493 244.55 461.643 249.31 452.823C249.67 452.193 249.98 451.573 250.3 450.973C252.32 453.163 251.47 459.033 252.63 459.553C258.25 462.023 268.1 459.573 274.57 458.673C281.22 457.763 285.49 453.833 291.29 452.053C292.05 456.723 288.44 468.823 293.88 472.093C302.06 476.933 319.57 466.223 326.98 463.403C337.18 459.573 337.86 460.693 347.7 463.753C353.77 465.633 367.54 468.773 374.15 466.923C383.05 464.483 378.65 458.203 380.18 452.423C382.7 452.323 384.33 452.993 386.67 452.263C390.31 451.153 392.47 447.983 395.17 446.033C395.57 445.753 395.98 445.473 396.38 445.233C399.26 448.683 399.39 451.883 390.27 455.753L390.24 455.763Z" fill="#291F1B"/>
</g>
<path d="M341.74 416.633C344.73 418.703 349.67 419.403 353.81 416.233C356.72 414.003 355.76 412.403 353.86 410.783C352.86 409.923 348.86 408.513 344.74 410.323C341.91 411.573 338.88 414.643 341.74 416.623V416.633Z" fill="#8A7875"/>
<path d="M311.4 412.323C312.67 414.173 315.36 415.393 318.45 413.903C320.62 412.853 320.41 411.633 319.68 410.263C319.29 409.533 317.3 407.973 314.52 408.553C312.61 408.953 310.19 410.553 311.4 412.313V412.323Z" fill="#8A7875"/>
<path d="M291.63 300.923C292.9 303.353 295.59 304.973 298.68 303.013C300.85 301.633 300.64 300.033 299.91 298.223C299.52 297.263 297.53 295.213 294.75 295.973C292.84 296.503 290.42 298.603 291.63 300.933V300.923Z" fill="#8A7875"/>
<path d="M365.97 370.203C362.42 372.033 359.36 370.113 357.88 367.273C356.4 364.433 359.36 361.823 361.75 361.173C361.88 361.123 362.02 361.083 362.15 361.083C363.36 364.113 364.71 367.133 365.97 370.203Z" fill="#8A7875"/>
<path d="M356.24 434.843C358.47 436.393 362.17 436.923 365.26 434.553C367.44 432.883 366.72 431.693 365.3 430.483C364.55 429.843 361.57 428.783 358.48 430.133C356.36 431.063 354.1 433.363 356.23 434.843H356.24Z" fill="#8A7875"/>
<path d="M286.06 420.903C288.42 420.123 290.28 418.093 289.02 415.383C288.14 413.473 286.68 413.473 284.96 413.883C284.05 414.103 281.91 415.513 282.15 417.853C282.32 419.463 283.8 421.653 286.05 420.903H286.06Z" fill="#8A7875"/>
<path d="M368.61 388.473C370.12 386.523 370.49 383.443 367.86 381.033C366.01 379.343 364.8 380.013 363.6 381.263C362.97 381.923 362 384.463 363.57 386.923C376.64 407.453 355.17 405.753 368.61 388.483V388.473Z" fill="#8A7875"/>
<path d="M330.85 372.233C333.08 374.273 336.78 374.963 339.87 371.843C342.05 369.653 341.33 368.073 339.91 366.483C339.16 365.643 336.18 364.243 333.09 366.023C330.97 367.253 328.71 370.273 330.84 372.223L330.85 372.233Z" fill="#8A7875"/>
<path d="M276.17 449.613C277.98 451.263 280.77 451.993 282.83 449.863C284.28 448.363 283.63 447.153 282.46 445.883C281.84 445.213 279.52 444.003 277.37 445.143C275.89 445.933 274.44 448.043 276.17 449.613Z" fill="#8A7875"/>
<path d="M357.86 448.663C361.38 450.593 367.34 450.993 372.55 447.473C376.22 444.993 375.13 443.423 372.92 441.883C371.75 441.073 366.98 439.873 361.86 442.003C358.35 443.463 354.5 446.823 357.85 448.663H357.86Z" fill="#8A7875"/>
<path d="M245.37 297.323C245.32 297.323 245.26 297.273 245.21 297.273C245.21 297.113 245.26 297.223 245.37 297.323Z" fill="#FEC945"/>
<path d="M246.8 353.143C245.64 353.343 244.59 353.343 243.63 353.043C238.45 351.683 236.18 343.933 236.99 337.343C237.74 331.353 239.96 328.133 246.1 328.133C246.85 328.133 247.56 328.133 248.21 328.183C252.79 328.383 254.6 329.643 255.15 336.583C255.65 341.863 253.54 351.823 246.8 353.133V353.143Z" fill="#DEAC3E"/>
<path d="M255.15 336.583C255.65 341.863 253.54 351.823 246.8 353.133C245.64 353.333 244.59 353.333 243.63 353.033C244.79 351.573 245.48 351.283 246.1 349.903C247.05 347.773 247.47 345.003 247.52 341.733C247.62 335.993 243.14 334.983 238.05 333.213C238.05 333.213 238.29 330.963 240.06 329.783C241.84 328.603 248.21 328.183 248.21 328.183C252.79 328.383 254.6 329.643 255.15 336.583Z" fill="#FEC945"/>
<path d="M246.93 331.443C244.8 331.443 238.99 331.293 239.69 328.153C240.05 326.523 242.04 325.763 242.92 324.383C243.91 322.813 244.53 321.013 244.64 319.183C245.51 305.523 245.28 290.963 245.63 276.763C245.79 270.533 245.74 263.643 244.48 257.473C244.04 255.323 243.08 253.373 242.67 251.253C243.55 251.283 244.5 251.933 245.49 252.073C246.62 252.233 252.39 252.053 253.51 252.093C251.24 256.003 250.85 260.543 250.15 264.903C248.74 273.603 249.3 282.703 248.6 291.483C248.22 296.273 248.6 301.043 248.6 305.823V313.553C248.6 315.513 249.5 322.843 250.2 324.693C250.74 326.123 254.39 328.043 252.62 329.753C251.26 331.063 249.08 331.443 246.95 331.443H246.93Z" fill="#BD9235"/>
<path d="M330.5 415.663C329.34 415.863 328.29 415.863 327.33 415.563C322.15 414.203 319.88 406.453 320.69 399.863C321.44 393.873 323.66 390.653 329.8 390.653C330.55 390.653 331.26 390.653 331.91 390.703C336.49 390.903 338.3 392.163 338.85 399.103C339.35 404.383 337.24 414.343 330.5 415.653V415.663Z" fill="#DEAC3E"/>
<path d="M338.85 399.113C339.35 404.393 337.24 414.353 330.5 415.663C329.34 415.863 328.29 415.863 327.33 415.563C328.49 414.103 329.18 413.813 329.8 412.433C330.75 410.303 331.17 407.533 331.22 404.263C331.32 398.523 326.84 397.513 321.75 395.743C321.75 395.743 321.99 393.493 323.76 392.313C325.54 391.133 331.91 390.713 331.91 390.713C336.49 390.913 338.3 392.173 338.85 399.113Z" fill="#FEC945"/>
<path d="M330.63 393.963C328.5 393.963 322.69 393.813 323.39 390.673C323.75 389.043 325.74 388.283 326.62 386.903C327.61 385.333 328.23 383.533 328.34 381.703C329.21 368.043 328.98 353.483 329.33 339.283C329.49 333.053 329.44 326.163 328.18 319.993C327.74 317.843 326.78 315.893 326.37 313.773C327.25 313.803 328.2 314.453 329.19 314.593C330.32 314.753 336.09 314.573 337.21 314.613C334.94 318.523 334.55 323.063 333.85 327.423C332.44 336.123 333 345.223 332.3 354.003C331.92 358.793 332.3 363.563 332.3 368.343V376.073C332.3 378.033 333.2 385.363 333.9 387.213C334.44 388.643 338.09 390.563 336.32 392.273C334.96 393.583 332.78 393.963 330.65 393.963H330.63Z" fill="#BD9235"/>
<path d="M392.02 279.523C390.86 279.723 389.81 279.723 388.85 279.423C383.67 278.063 381.4 270.313 382.21 263.723C382.96 257.733 385.18 254.513 391.32 254.513C392.07 254.513 392.78 254.513 393.43 254.563C398.01 254.763 399.82 256.023 400.37 262.963C400.87 268.243 398.76 278.203 392.02 279.513V279.523Z" fill="#DEAC3E"/>
<path d="M400.37 262.973C400.87 268.253 398.76 278.213 392.02 279.523C390.86 279.723 389.81 279.723 388.85 279.423C390.01 277.963 390.7 277.673 391.32 276.293C392.27 274.163 392.69 271.393 392.74 268.123C392.84 262.383 388.36 261.373 383.27 259.603C383.27 259.603 383.51 257.353 385.28 256.173C387.06 254.993 393.43 254.573 393.43 254.573C398.01 254.773 399.82 256.033 400.37 262.973Z" fill="#FEC945"/>
<path d="M392.14 257.823C390.01 257.823 384.2 257.673 384.9 254.533C385.26 252.903 387.25 252.143 388.13 250.763C389.12 249.193 389.74 247.393 389.85 245.563C390.72 231.903 390.49 217.343 390.84 203.143C391 196.913 390.95 190.023 389.69 183.853C389.25 181.703 388.29 179.753 387.88 177.633C388.76 177.663 389.71 178.313 390.7 178.453C391.83 178.613 397.6 178.433 398.72 178.473C396.45 182.383 396.06 186.923 395.36 191.283C393.95 199.983 394.51 209.083 393.81 217.863C393.43 222.653 393.81 227.423 393.81 232.203V239.933C393.81 241.893 394.71 249.223 395.41 251.073C395.95 252.503 399.6 254.423 397.83 256.133C396.47 257.443 394.29 257.823 392.16 257.823H392.14Z" fill="#BD9235"/>
<path d="M118.73 272.463C117.57 272.663 116.52 272.663 115.56 272.363C110.38 271.003 108.11 263.253 108.92 256.663C109.67 250.673 111.89 247.453 118.03 247.453C118.78 247.453 119.49 247.453 120.14 247.503C124.72 247.703 126.53 248.963 127.08 255.903C127.58 261.183 125.47 271.143 118.73 272.453V272.463Z" fill="#DEAC3E"/>
<path d="M127.08 255.913C127.58 261.193 125.47 271.153 118.73 272.463C117.57 272.663 116.52 272.663 115.56 272.363C116.72 270.903 117.41 270.613 118.03 269.233C118.98 267.103 119.4 264.333 119.45 261.063C119.55 255.323 115.07 254.313 109.98 252.543C109.98 252.543 110.22 250.293 111.99 249.113C113.77 247.933 120.14 247.513 120.14 247.513C124.72 247.713 126.53 248.973 127.08 255.913Z" fill="#FEC945"/>
<path d="M118.86 250.763C116.73 250.763 110.92 250.613 111.62 247.473C111.98 245.843 113.97 245.083 114.85 243.703C115.84 242.133 116.46 240.333 116.57 238.503C117.44 224.843 117.21 210.283 117.56 196.083C117.72 189.853 117.67 182.963 116.41 176.793C115.97 174.643 115.01 172.693 114.6 170.573C115.48 170.603 116.43 171.253 117.42 171.393C118.55 171.553 124.32 171.373 125.44 171.413C123.17 175.323 122.78 179.863 122.08 184.223C120.67 192.923 121.23 202.023 120.53 210.803C120.15 215.593 120.53 220.363 120.53 225.143V232.873C120.53 234.833 121.43 242.163 122.13 244.013C122.67 245.443 126.32 247.363 124.55 249.073C123.19 250.383 121.01 250.763 118.88 250.763H118.86Z" fill="#BD9235"/>
<path d="M150.09 400.023C149.09 400.193 148.17 400.193 147.34 399.933C142.85 398.753 140.88 392.033 141.58 386.323C142.23 381.133 144.15 378.343 149.48 378.343C150.13 378.343 150.75 378.343 151.31 378.383C155.28 378.553 156.85 379.653 157.33 385.673C157.77 390.253 155.93 398.893 150.09 400.023Z" fill="#DEAC3E"/>
<path d="M157.33 385.673C157.77 390.253 155.93 398.893 150.09 400.023C149.09 400.193 148.17 400.193 147.34 399.933C148.34 398.663 148.95 398.413 149.48 397.213C150.3 395.363 150.67 392.963 150.71 390.133C150.8 385.163 146.91 384.283 142.5 382.743C142.5 382.743 142.71 380.793 144.24 379.763C145.78 378.733 151.31 378.383 151.31 378.383C155.28 378.553 156.85 379.653 157.33 385.673Z" fill="#FEC945"/>
<path d="M150.2 381.213C148.35 381.213 143.32 381.083 143.92 378.353C144.23 376.933 145.96 376.283 146.72 375.083C147.58 373.723 148.11 372.163 148.21 370.573C148.97 358.733 148.76 346.103 149.07 333.793C149.2 328.393 149.17 322.413 148.07 317.073C147.69 315.203 146.86 313.523 146.5 311.673C147.27 311.703 148.09 312.263 148.94 312.383C149.92 312.523 154.92 312.373 155.89 312.403C153.92 315.793 153.59 319.723 152.97 323.513C151.75 331.053 152.23 338.943 151.62 346.563C151.29 350.713 151.62 354.853 151.62 359.003V365.713C151.62 367.413 152.4 373.763 153.01 375.373C153.48 376.613 156.64 378.283 155.11 379.763C153.93 380.903 152.04 381.223 150.19 381.223L150.2 381.213Z" fill="#BD9235"/>
<path d="M509.09 381.873C508.09 382.043 507.17 382.043 506.34 381.783C501.85 380.603 499.88 373.883 500.58 368.173C501.23 362.983 503.15 360.193 508.48 360.193C509.13 360.193 509.75 360.193 510.31 360.233C514.28 360.403 515.85 361.503 516.33 367.523C516.77 372.103 514.93 380.743 509.09 381.873Z" fill="#DEAC3E"/>
<path d="M516.33 367.523C516.77 372.103 514.93 380.743 509.09 381.873C508.09 382.043 507.17 382.043 506.34 381.783C507.34 380.513 507.95 380.263 508.48 379.063C509.3 377.213 509.67 374.813 509.71 371.983C509.8 367.013 505.91 366.133 501.5 364.593C501.5 364.593 501.71 362.643 503.24 361.613C504.78 360.583 510.31 360.233 510.31 360.233C514.28 360.403 515.85 361.503 516.33 367.523Z" fill="#FEC945"/>
<path d="M509.2 363.063C507.35 363.063 502.32 362.933 502.92 360.203C503.23 358.783 504.96 358.133 505.72 356.933C506.58 355.573 507.11 354.013 507.21 352.423C507.97 340.583 507.76 327.953 508.07 315.643C508.2 310.243 508.17 304.263 507.07 298.923C506.69 297.053 505.86 295.373 505.5 293.523C506.27 293.553 507.09 294.113 507.94 294.233C508.92 294.373 513.92 294.223 514.89 294.253C512.92 297.643 512.59 301.573 511.97 305.363C510.75 312.903 511.23 320.793 510.62 328.413C510.29 332.563 510.62 336.703 510.62 340.853V347.563C510.62 349.263 511.4 355.613 512.01 357.223C512.48 358.463 515.64 360.133 514.11 361.613C512.93 362.753 511.04 363.073 509.19 363.073L509.2 363.063Z" fill="#BD9235"/>
<path d="M570.33 358.143C569.33 358.313 568.41 358.313 567.58 358.053C563.09 356.873 561.12 350.153 561.82 344.443C562.47 339.253 564.39 336.463 569.72 336.463C570.37 336.463 570.99 336.463 571.55 336.503C575.52 336.673 577.09 337.773 577.57 343.793C578.01 348.373 576.17 357.013 570.33 358.143Z" fill="#DEAC3E"/>
<path d="M577.57 343.793C578.01 348.373 576.17 357.013 570.33 358.143C569.33 358.313 568.41 358.313 567.58 358.053C568.58 356.783 569.19 356.533 569.72 355.333C570.54 353.483 570.91 351.083 570.95 348.253C571.04 343.283 567.15 342.403 562.74 340.863C562.74 340.863 562.95 338.913 564.48 337.883C566.02 336.853 571.55 336.503 571.55 336.503C575.52 336.673 577.09 337.773 577.57 343.793Z" fill="#FEC945"/>
<path d="M570.44 339.323C568.59 339.323 563.56 339.193 564.16 336.463C564.47 335.043 566.2 334.393 566.96 333.193C567.82 331.833 568.35 330.273 568.45 328.683C569.21 316.843 569 312.883 569.31 300.563C569.44 295.163 569.41 289.183 568.31 283.843C567.93 281.973 567.1 280.293 566.74 278.443C567.51 278.473 568.33 279.033 569.18 279.153C570.16 279.293 575.16 279.143 576.13 279.173C574.16 282.563 573.83 286.493 573.21 290.283C571.99 297.823 572.47 297.053 571.86 304.663C571.53 308.813 571.86 312.953 571.86 317.103V323.813C571.86 325.513 572.64 331.863 573.25 333.473C573.72 334.713 576.88 336.383 575.35 337.863C574.17 339.003 572.28 339.323 570.43 339.323H570.44Z" fill="#BD9235"/>
<path d="M414.3 164.053C413.3 164.223 412.38 164.223 411.55 163.963C407.06 162.783 405.09 156.063 405.79 150.353C406.44 145.163 408.36 142.373 413.69 142.373C414.34 142.373 414.96 142.373 415.52 142.413C419.49 142.583 421.06 143.683 421.54 149.703C421.98 154.283 420.14 162.923 414.3 164.053Z" fill="#DEAC3E"/>
<path d="M421.54 149.703C421.98 154.283 420.14 162.923 414.3 164.053C413.3 164.223 412.38 164.223 411.55 163.963C412.55 162.693 413.16 162.443 413.69 161.243C414.51 159.393 414.88 156.993 414.92 154.163C415.01 149.193 411.12 148.313 406.71 146.773C406.71 146.773 406.92 144.823 408.45 143.793C409.98 142.763 415.52 142.413 415.52 142.413C419.49 142.583 421.06 143.683 421.54 149.703Z" fill="#FEC945"/>
<path d="M414.4 145.243C412.55 145.243 407.52 145.113 408.12 142.383C408.43 140.963 410.16 140.313 410.92 139.113C411.78 137.753 412.31 136.193 412.41 134.603C413.17 122.763 412.96 110.133 413.27 97.8227C413.4 92.4227 413.37 86.4427 412.27 81.1027C411.89 79.2327 411.06 77.5527 410.7 75.7027C411.47 75.7327 412.29 76.2927 413.14 76.4127C414.12 76.5527 419.12 76.4027 420.09 76.4327C418.12 79.8227 417.79 83.7527 417.17 87.5427C415.95 95.0827 416.43 102.973 415.82 110.593C415.49 114.743 415.82 118.883 415.82 123.033V129.743C415.82 131.443 416.6 137.793 417.21 139.403C417.68 140.643 420.84 142.313 419.31 143.793C418.13 144.933 416.24 145.253 414.39 145.253L414.4 145.243Z" fill="#BD9235"/>
<path d="M199.5 185.233C198.5 185.403 197.58 185.403 196.75 185.143C192.26 183.963 190.29 177.243 190.99 171.533C191.64 166.343 193.56 163.553 198.89 163.553C199.54 163.553 200.16 163.553 200.72 163.593C204.69 163.763 206.26 164.863 206.74 170.883C207.18 175.463 205.34 184.103 199.5 185.233Z" fill="#DEAC3E"/>
<path d="M206.74 170.883C207.18 175.463 205.34 184.103 199.5 185.233C198.5 185.403 197.58 185.403 196.75 185.143C197.75 183.873 198.36 183.623 198.89 182.423C199.71 180.573 200.08 178.173 200.12 175.343C200.21 170.373 196.32 169.493 191.91 167.953C191.91 167.953 192.12 166.003 193.65 164.973C195.19 163.943 200.72 163.593 200.72 163.593C204.69 163.763 206.26 164.863 206.74 170.883Z" fill="#FEC945"/>
<path d="M199.61 166.413C197.76 166.413 192.73 166.283 193.33 163.553C193.64 162.133 195.37 161.483 196.13 160.283C196.99 158.923 197.52 157.363 197.62 155.773C198.38 143.933 198.17 131.303 198.48 118.993C198.61 113.593 198.58 107.613 197.48 102.273C197.1 100.403 196.27 98.7227 195.91 96.8727C196.68 96.9027 197.5 97.4627 198.35 97.5827C199.33 97.7227 204.33 97.5727 205.3 97.6027C203.33 100.993 203 104.923 202.38 108.713C201.16 116.253 201.64 124.143 201.03 131.763C200.7 135.913 201.03 140.053 201.03 144.203V150.913C201.03 152.613 201.81 158.963 202.42 160.573C202.89 161.813 206.05 163.483 204.52 164.963C203.34 166.103 201.45 166.423 199.6 166.423L199.61 166.413Z" fill="#BD9235"/>
<path d="M70.42 353.643C69.42 353.813 68.5 353.813 67.67 353.553C63.18 352.373 61.21 345.653 61.91 339.943C62.56 334.753 64.4799 331.963 69.8099 331.963C70.4599 331.963 71.08 331.963 71.64 332.003C75.61 332.173 77.18 333.273 77.66 339.293C78.1 343.873 76.26 352.513 70.42 353.643Z" fill="#DEAC3E"/>
<path d="M77.6599 339.283C78.0999 343.863 76.26 352.503 70.42 353.633C69.42 353.803 68.5 353.803 67.67 353.543C68.67 352.273 69.2799 352.023 69.8099 350.823C70.6299 348.973 70.9999 346.573 71.0399 343.743C71.1299 338.773 67.24 337.893 62.83 336.353C62.83 336.353 63.0399 334.403 64.5699 333.373C66.0999 332.343 71.64 331.993 71.64 331.993C75.61 332.163 77.1799 333.263 77.6599 339.283Z" fill="#FEC945"/>
<path d="M70.5299 334.823C68.6799 334.823 63.6499 334.693 64.2499 331.963C64.5599 330.543 66.29 329.893 67.05 328.693C67.91 327.333 68.44 325.773 68.54 324.183C69.3 312.343 69.0899 299.713 69.3999 287.403C69.5299 282.003 69.4999 276.023 68.3999 270.683C68.0199 268.813 67.19 267.133 66.83 265.283C67.6 265.313 68.42 265.873 69.27 265.993C70.25 266.133 75.2499 265.983 76.2199 266.013C74.2499 269.403 73.92 273.333 73.3 277.123C72.08 284.663 72.56 292.553 71.95 300.173C71.62 304.323 71.95 308.463 71.95 312.613V319.323C71.95 321.023 72.7299 327.373 73.3399 328.983C73.8099 330.223 76.9699 331.893 75.4399 333.373C74.2599 334.513 72.37 334.833 70.52 334.833L70.5299 334.823Z" fill="#BD9235"/>
<path d="M331.11 159.873C330.11 160.043 329.19 160.043 328.36 159.783C323.87 158.603 321.9 151.883 322.6 146.173C323.25 140.983 325.17 138.193 330.5 138.193C331.15 138.193 331.77 138.193 332.33 138.233C336.3 138.403 337.87 139.503 338.35 145.523C338.79 150.103 336.95 158.743 331.11 159.873Z" fill="#DEAC3E"/>
<path d="M338.35 145.523C338.79 150.103 336.95 158.743 331.11 159.873C330.11 160.043 329.19 160.043 328.36 159.783C329.36 158.513 329.97 158.263 330.5 157.063C331.32 155.213 331.69 152.813 331.73 149.983C331.82 145.013 327.93 144.133 323.52 142.593C323.52 142.593 323.73 140.643 325.26 139.613C326.8 138.583 332.33 138.233 332.33 138.233C336.3 138.403 337.87 139.503 338.35 145.523Z" fill="#FEC945"/>
<path d="M331.22 141.063C329.37 141.063 324.34 140.933 324.94 138.203C325.25 136.783 326.98 136.133 327.74 134.933C328.6 133.573 329.13 132.013 329.23 130.423C329.99 118.583 329.78 105.953 330.09 93.6427C330.22 88.2427 330.19 82.2627 329.09 76.9227C328.71 75.0527 327.88 73.3727 327.52 71.5227C328.29 71.5527 329.11 72.1127 329.96 72.2327C330.94 72.3727 335.94 72.2227 336.91 72.2527C334.94 75.6427 334.61 79.5727 333.99 83.3627C332.77 90.9027 333.25 98.7927 332.64 106.413C332.31 110.563 332.64 114.703 332.64 118.853V125.563C332.64 127.263 333.42 133.613 334.03 135.223C334.5 136.463 337.66 138.133 336.13 139.613C334.95 140.753 333.06 141.073 331.21 141.073L331.22 141.063Z" fill="#BD9235"/>
<path d="M456.15 377.693C455.15 377.863 454.23 377.863 453.4 377.603C448.91 376.423 446.94 369.703 447.64 363.993C448.29 358.803 450.21 356.013 455.54 356.013C456.19 356.013 456.81 356.013 457.37 356.053C461.34 356.223 462.91 357.323 463.39 363.343C463.83 367.923 461.99 376.563 456.15 377.693Z" fill="#DEAC3E"/>
<path d="M463.4 363.343C463.84 367.923 462 376.563 456.16 377.693C455.16 377.863 454.24 377.863 453.41 377.603C454.41 376.333 455.02 376.083 455.55 374.883C456.37 373.033 456.74 370.633 456.78 367.803C456.87 362.833 452.98 361.953 448.57 360.413C448.57 360.413 448.78 358.463 450.31 357.433C451.84 356.403 457.38 356.053 457.38 356.053C461.35 356.223 462.92 357.323 463.4 363.343Z" fill="#FEC945"/>
<path d="M456.26 358.883C454.41 358.883 449.38 358.753 449.98 356.023C450.29 354.603 452.02 353.953 452.78 352.753C453.64 351.393 454.17 349.833 454.27 348.243C455.03 336.403 454.82 323.773 455.13 311.463C455.26 306.063 455.23 300.083 454.13 294.743C453.75 292.873 452.92 291.193 452.56 289.343C453.33 289.373 454.15 289.933 455 290.053C455.98 290.193 460.98 290.043 461.95 290.073C459.98 293.463 459.65 297.393 459.03 301.183C457.81 308.723 458.29 316.613 457.68 324.233C457.35 328.383 457.68 332.523 457.68 336.673V343.383C457.68 345.083 458.46 351.433 459.07 353.043C459.54 354.283 462.7 355.953 461.17 357.433C459.99 358.573 458.1 358.893 456.25 358.893L456.26 358.883Z" fill="#BD9235"/>
<path d="M304.64 0.0427197C306.81 0.10272 309.87 0.612701 311.97 1.2427C313.7 1.7627 318.04 4.4827 318.99 4.6127C320.3 4.7927 323.33 3.60272 325.08 3.54272C327.87 3.45272 331.51 4.1827 334.03 5.3927C335.53 6.1127 338.75 9.07271 339.85 9.28271C344.94 10.2327 349.06 5.15269 355.03 10.4227C356.04 11.3227 357.96 14.8927 358.2 15.0227C358.68 15.2627 362.83 14.4727 363.94 14.4827C368.33 14.5527 374.67 17.2127 376.89 21.2627C370.61 23.4027 347.79 34.1127 342.29 31.8727C340.83 31.2827 339.49 28.0527 337.21 27.2027C331.48 25.0727 321.14 30.6627 315.22 31.9227C305.58 33.9627 310.54 29.8227 305.99 26.5827C300.83 22.9027 283.89 32.2227 274.48 27.4827C273.23 26.8527 267.49 22.8827 267.06 21.8527C266.02 19.4027 268.91 13.5927 271.05 12.6427C271.99 12.2327 273.47 12.7027 273.7 11.8227C276.36 11.2227 281.62 9.73271 284.03 8.65271C289.07 6.3927 294.47 0.882717 300.41 0.102717C301.57 -0.0472827 303.44 0.00270996 304.65 0.03271L304.64 0.0427197Z" fill="#25B86E"/>
<path d="M332.14 56.3527C333.37 55.7827 334.2 55.1627 335.64 54.7227C336.8 54.3627 338.19 54.8327 339.4 54.1727C340.04 53.8227 342.11 51.2327 343.62 50.3027C346.19 48.7127 349.59 47.4927 352.63 47.6227C353.86 47.6727 357.53 49.0427 357.8 48.9927C357.92 48.9627 359.16 47.4227 359.6 47.1627C364.26 44.4527 374.22 42.4227 379.53 43.2627C383.06 43.8227 391.72 47.8127 394.31 47.1427C394.68 47.0427 395.59 46.0827 396.35 45.8427C401.66 44.2227 411.27 45.9727 416.2 48.6427C417.29 49.2327 420.37 52.0027 420.65 52.0327C420.88 52.0527 423.42 50.0927 424.28 49.7627C438.35 44.3827 449.73 46.8127 458.3 59.5727C459.83 61.8527 460.76 64.9027 462.47 66.9127C469.46 75.1027 483.55 68.0627 491.27 78.1427C492.24 79.4127 494.92 85.6227 495.36 85.9327C495.8 86.2427 499.65 86.8727 500.68 87.3027C505.62 89.3927 510.32 92.8927 512.24 98.2327C502.77 95.0327 491.51 99.6127 482.28 98.3527C476.33 97.5427 472.59 89.6227 466.25 88.1027C459.32 86.4427 450.03 87.8327 442.93 88.0327C442.49 87.9127 438.24 81.9627 436.97 81.0527C432.44 77.8027 425.85 78.8327 420.84 80.2227C417.07 81.2727 407.16 86.9427 404.17 86.2327C401.7 85.6427 402 77.5027 399.01 75.5427C392.86 71.5227 375.68 84.8527 365.67 79.8327C359.63 76.8027 363.46 70.0127 358.99 69.0227C354.95 68.1227 344.94 72.2327 339.82 72.5927C334.97 72.9327 326.62 72.5027 327.62 65.5127C327.71 64.9127 329.76 61.4727 330.31 60.5927C331.07 59.3627 333.43 57.6827 332.14 56.3627V56.3527Z" fill="#25B86E"/>
<path d="M328.41 183.133C329.05 183.063 330.91 183.263 331.25 182.983C331.51 182.773 331.46 181.213 331.82 180.463C332.9 178.133 335.95 175.853 338.3 175.033C339.32 174.673 341.99 174.563 342.16 174.463C342.33 174.363 343.23 171.923 343.91 171.103C346.38 168.153 349.92 167.753 353.48 168.373C355.26 168.683 360.48 171.673 360.87 171.573C361.11 171.513 362.65 168.833 364.27 168.013C367.27 166.493 369.91 166.803 372.62 168.763C373.28 169.243 375.1 171.493 375.29 171.513C375.57 171.543 378.67 169.263 380.28 168.903C392.72 166.143 395.44 171.483 404.42 176.103C413.54 180.803 421.57 172.423 430.9 184.393C431.29 184.893 431.48 186.213 431.56 186.263C431.87 186.473 434.82 185.923 435.66 185.983C439.26 186.233 440.67 187.393 442.44 190.453C441.69 190.343 440.96 190.163 440.19 190.233C435.71 190.633 428.9 201.403 421.23 201.813C415.96 202.103 417.28 197.253 412.7 197.153C408.57 197.063 395.64 203.673 394.43 203.243C393.75 203.003 394.21 197.083 389.36 197.053C379.89 196.983 364.99 210.843 357.29 204.633C355.4 203.113 356.32 200.243 353.71 198.873C347.87 195.833 332.98 206.063 324.81 199.713C321.26 196.953 322.61 189.943 324.97 186.693C326.17 185.043 328.17 184.673 328.41 183.113V183.133Z" fill="#25B86E"/>
<path d="M315.42 306.203C322.72 303.543 329.56 294.103 337.25 294.093C339.15 294.093 343.73 295.893 345.08 295.633C345.76 295.503 348.9 292.593 350.52 291.993C353.6 290.863 356.29 290.693 359.24 292.233C359.99 292.623 362.36 294.863 362.77 294.863C363.07 294.863 366.85 292.153 367.97 291.713C372.38 289.963 375.36 289.853 379.6 292.073C380.43 292.513 383.53 295.003 383.78 295.023C384.17 295.053 386.39 293.653 387.21 293.443C390.88 292.503 394.94 292.113 397.79 295.163C398.51 295.933 400.05 299.173 400.26 299.273C400.85 299.563 404.21 299.123 405.28 299.243C408.49 299.623 411.44 300.713 413.95 302.823C415.21 303.883 417.66 307.753 417.94 307.913C418.73 308.373 422.17 308.493 423.53 308.873C427.28 309.933 429.93 313.053 430.91 316.863C423.92 320.263 417.18 322.683 409.23 321.713C405.23 321.223 399.94 318.463 396.38 318.603C390.29 318.853 377.79 326.923 372.86 322.353C371.08 320.703 371.75 316.603 367.6 316.653C362.92 316.713 355.14 325.853 348.86 325.613C340.68 325.303 351.51 313.703 340.46 314.473C335.7 314.803 316.1 322.243 313.62 315.763C312.48 312.793 315.04 313.113 315.44 311.293C315.92 309.153 314.03 307.943 315.41 306.173L315.42 306.203Z" fill="#25B86E"/>
<path d="M62.54 146.683C64.44 145.923 67.85 145.133 69.09 144.513C70.29 143.913 73.37 140.413 75.33 139.313C84.98 133.853 87.46 139.153 95.03 138.183C98.43 137.743 104.08 131.673 108.69 131.323C111.23 131.133 113.46 132.883 114.57 132.863C115.2 132.863 118.25 131.313 119.76 131.153C122.99 130.803 126.97 131.353 130 132.533C130.7 132.803 131.92 134.053 132.27 134.053C132.56 134.053 136.09 131.923 137.53 131.673C143.63 130.613 149.58 133.413 152.25 139.173C152.7 140.153 153.35 143.653 153.54 143.793C154.26 144.343 161.78 142.633 164.49 145.343C165.12 145.973 165.53 147.603 165.64 147.673C166.66 148.323 170.72 145.873 174.37 149.603C178.93 154.273 177.55 158.383 173.38 162.483C172.92 159.693 168.59 157.443 166.21 156.713C158.99 154.483 147.68 159.843 140.83 162.523C141.76 153.003 131.96 151.023 124.88 153.033C123.03 153.563 121.23 154.953 119.32 155.343C117.22 155.773 115.17 155.533 112.72 156.163C110.41 156.753 97.84 163.303 97.17 162.583C97.06 162.463 96.66 160.083 96.32 159.373C91.11 148.583 62.69 167.883 59.49 153.413C58.78 150.233 64.71 150.853 62.53 146.673L62.54 146.683Z" fill="#25B86E"/>
<path d="M603.59 289.633C598.01 290.563 593.65 296.763 587.73 297.513C585.68 297.773 584.03 297.373 581.58 297.833C576.99 298.683 568.23 303.473 564.97 303.693C562.91 303.833 562.13 302.203 560.44 301.913C555.42 301.053 548.55 305.923 543.71 307.273C533.03 310.243 541.93 299.543 534.04 299.133C523.12 298.563 512.19 312.613 497.61 303.513C492.16 300.113 495.4 295.373 498.92 291.883L494.9 291.343C500.56 287.033 509.89 288.053 516.07 284.683C518.63 283.293 520.42 280.243 522.79 278.543C527.38 275.243 534.17 274.523 539.54 276.023C540.6 276.323 543.44 278.003 543.67 278.013C544.77 278.063 547.66 275.783 548.65 275.443C552.81 274.053 559.16 275.443 562.82 277.153C563.48 277.463 565.6 279.493 566.09 279.573C566.63 279.653 569.39 278.663 570.51 278.593C573.23 278.423 578.3 279.163 580.56 280.753C581.51 281.423 583.38 284.323 583.61 284.373C583.82 284.423 586.88 283.203 587.82 283.143C593.42 282.783 594.32 287.663 595.71 288.033C598.55 288.793 599.42 285.793 603.6 289.623L603.59 289.633Z" fill="#25B86E"/>
<path d="M237.27 238.663C240.96 236.363 246.48 233.223 250.98 233.393C252.48 233.453 253.79 234.413 255.37 234.183C257.49 233.883 261.71 230.263 264.26 229.223C268.18 227.623 271.82 226.963 276.02 227.583C277.48 227.793 281.37 229.463 281.86 229.473C282.52 229.493 286.45 227.403 288.38 227.263C292.72 226.933 294.84 229.533 296.95 229.713C297.89 229.793 301.15 228.313 303.46 228.513C307.67 228.863 311.06 233.453 312.9 236.903C313.26 237.573 313.59 239.523 313.69 239.603C313.93 239.793 318.15 239.303 319.81 239.643C320.6 239.803 324.48 241.263 325.01 241.743C325.94 242.573 326.15 244.133 326.26 244.213C326.44 244.343 329.73 243.853 330.6 243.933C334.15 244.263 337.13 248.253 337.21 251.763C330.54 245.123 322.02 254.753 315.41 257.093C312.77 258.033 307.64 259.213 305.02 258.133C302.65 257.163 303.03 253.623 297.96 253.103C289.91 252.283 282.31 260.363 275.02 255.483C272.96 254.113 272.24 251.313 269.95 250.063C261.3 245.333 245.68 256.563 237.85 252.073C237.2 251.703 235.69 250.543 235.57 249.803C235.42 248.883 236.17 248.583 236.14 248.153C235.94 245.103 235.1 243.903 236.33 240.713C236.51 240.243 238.46 238.623 237.25 238.663H237.27Z" fill="#25B86E"/>
<path d="M571.31 198.053C568.59 198.763 566.94 200.573 564.15 201.513C561.9 202.273 542.45 206.683 541.14 206.443C540.23 206.273 539.07 205.013 537.65 204.743C530.17 203.343 523.49 211.133 516.65 209.973C513.7 209.473 513.43 204.003 510.77 202.243C506.04 199.113 495.35 205.733 490.13 206.713C488.06 207.103 478.14 207.513 476.69 206.573C474.53 205.163 477.78 198.763 479.58 197.463C480.97 196.463 483.76 196.643 481.98 194.903C480.67 193.613 479.11 194.393 477.63 194.713C478.93 192.383 487.31 192.273 487.93 191.873C488.11 191.753 488.62 189.293 489.92 188.033C492.09 185.933 494.9 186.223 496.12 185.403C497.06 184.773 496.97 182.233 500.08 181.263C504.86 179.773 509.27 183.583 510.09 183.393C510.91 183.203 511.63 179.663 516.21 180.153C518.38 180.383 519.78 182.653 520.48 182.713C521.09 182.763 525.42 180.943 526.9 180.773C530.65 180.343 537.82 181.873 540.8 184.343C542.41 185.683 543.82 188.753 545.13 189.803C550.76 194.293 566.55 183.813 571.32 198.043L571.31 198.053Z" fill="#25B86E"/>
<path d="M199.63 322.213C194.88 322.263 188.99 325.473 184.47 325.093C179.29 324.663 177.31 319.853 171.64 320.003C168.48 320.083 151.21 325.413 150.14 324.433C149.71 324.033 153.06 316.763 148.91 314.863C143.83 312.533 136.32 319.723 128.79 316.723C125.02 315.223 119.84 311.213 124.4 307.153C125.34 306.313 125.79 307.973 125.57 305.593C129.35 302.363 134.96 298.923 140.11 300.193C141.03 300.423 142.82 301.673 143.27 301.653C143.79 301.633 146.26 299.953 147.22 299.653C153.55 297.723 159.06 297.813 164.72 301.413C165.25 301.743 166.4 303.173 166.71 303.223C167.55 303.343 170.7 300.583 174.55 301.573C178.35 302.553 182.98 309.483 183.56 309.683C184.25 309.923 187.84 309.353 189.31 309.503C195.22 310.113 203.65 315.203 199.63 322.213Z" fill="#25B86E"/>
<path d="M569.86 273.813C570.25 274.163 569.07 274.963 568.93 274.183C568.91 274.053 569.76 273.723 569.86 273.813Z" fill="#25B86E"/>
<path d="M477.16 194.963C477.21 194.873 477.29 194.743 477.39 194.723C477.32 194.793 477.25 194.923 477.16 194.963Z" fill="#25B86E"/>
<path d="M465.86 111.233C455.33 111.503 447.27 115.323 438.02 116.223C433 116.713 430.22 115.823 426.61 112.313C425.24 110.963 424.1 109.523 423.09 107.913C422.52 106.973 420.58 102.293 420.31 102.073C419.87 101.763 411.63 104.773 409.78 105.033C407.67 105.343 406.04 105.483 403.88 105.483C399.03 105.443 392.29 104.133 388.24 101.393C385.68 100.633 384.36 95.9527 383.75 95.7327C382.12 95.1027 371.99 96.4027 369.17 96.4027C362.43 96.4027 357.76 96.0427 352.96 90.7827C351.99 89.7027 350.27 86.0627 350.01 85.9327C349.75 85.7527 344.81 86.5127 343.58 86.4727C341.29 86.3427 329.75 82.1627 328.16 80.6827C326.84 79.4727 322.7 72.2327 322.48 70.5327C321.47 63.3027 326.36 59.0327 332.17 56.3327C333.45 57.6827 331.07 59.3427 330.32 60.5527C329.79 61.4527 327.72 64.9127 327.63 65.4927C326.62 72.5027 334.99 72.9027 339.83 72.5927C344.94 72.2327 354.94 68.1027 358.99 69.0027C363.48 69.9927 359.65 76.7727 365.69 79.8327C375.69 84.8627 392.87 71.5227 399.04 75.5227C402.04 77.5027 401.73 85.6327 404.19 86.2127C407.19 86.9327 417.1 81.2727 420.84 80.2427C425.86 78.8527 432.43 77.8127 436.96 81.0527C438.24 81.9527 442.51 87.9227 442.95 88.0627C450.04 87.8427 459.34 86.4427 466.25 88.1027C472.59 89.6327 476.34 97.5327 482.28 98.3427C491.53 99.6027 502.76 95.0227 512.23 98.2527C521.04 122.733 475.58 110.963 465.84 111.233H465.86Z" fill="#278A58"/>
<path d="M315.42 306.203C314.03 307.973 315.92 309.183 315.45 311.323C315.04 313.143 312.49 312.813 313.63 315.793C316.11 322.273 335.71 314.833 340.47 314.503C351.52 313.733 340.69 325.333 348.87 325.643C355.14 325.883 362.93 316.743 367.61 316.683C371.75 316.623 371.08 320.723 372.87 322.383C377.8 326.953 390.3 318.883 396.39 318.633C399.95 318.483 405.24 321.253 409.24 321.743C417.18 322.713 423.93 320.303 430.92 316.893C434.09 329.263 412.7 335.413 403.97 336.303C398.46 336.863 389.09 335.283 384.85 337.293C376.02 341.463 371.61 347.433 359.81 346.623C356.41 346.393 351.35 343.713 348.87 343.703C343.72 343.673 337.32 346.983 332.71 341.173C330.83 338.803 332.45 337.453 329 337.483C323.6 337.533 315.81 340.153 311.62 334.283C310.53 332.753 310.52 330.263 310.37 330.103C310.21 329.923 306.85 329.483 305.72 329.013C295.78 324.933 294.89 314.613 304.55 309.543C308.03 307.723 311.84 307.533 315.44 306.213L315.42 306.203Z" fill="#278A58"/>
<path d="M328.41 183.133C328.17 184.693 326.16 185.063 324.97 186.713C322.61 189.963 321.27 196.973 324.81 199.733C332.97 206.083 347.87 195.853 353.71 198.893C356.33 200.253 355.4 203.133 357.29 204.653C364.99 210.853 379.9 197.003 389.36 197.073C394.2 197.103 393.75 203.023 394.43 203.263C395.64 203.693 408.56 197.073 412.7 197.173C417.28 197.273 415.96 202.123 421.23 201.833C428.9 201.413 435.7 190.653 440.19 190.253C440.96 190.183 441.69 190.363 442.44 190.473C443.24 191.853 444.12 193.233 444.16 194.913C444.37 202.843 424.65 211.963 418.37 213.923C413.06 215.573 406.53 215.023 401.81 216.733C399.03 217.743 396.53 220.953 393.94 222.453C384.37 227.973 372.45 227.683 362.89 222.483C361.23 221.583 359.11 219.133 357.96 218.633C356.87 218.163 355.19 218.213 353.66 217.533C352.14 216.853 350.79 215.113 349.66 214.663C343.59 212.253 329.79 214.663 325.16 209.163C324.27 208.103 324.12 206.443 324.02 206.333C323.85 206.143 320.02 205.623 319.09 205.283C310.91 202.283 307.61 195.283 314.59 188.523C318.26 184.973 323.53 183.703 328.42 183.133H328.41Z" fill="#278A58"/>
<path d="M62.5399 146.683C64.7299 150.863 58.7999 150.233 59.4999 153.423C62.7099 167.893 91.12 148.583 96.33 159.383C96.67 160.093 97.0599 162.473 97.1799 162.593C97.8599 163.303 110.42 156.763 112.73 156.173C115.18 155.553 117.23 155.783 119.33 155.353C121.24 154.963 123.04 153.563 124.89 153.043C131.97 151.033 141.77 153.013 140.84 162.533C147.69 159.863 158.99 154.503 166.22 156.723C168.6 157.453 172.92 159.703 173.39 162.493C168.94 166.873 155.26 173.243 149.13 174.383C143.79 175.373 140.28 174.353 135.34 177.563C123.82 185.053 115.46 188.403 102.06 181.443C100.37 180.563 98.6599 178.473 97.3399 177.863C92.3799 175.563 87.88 173.513 82.39 172.823C78.13 172.293 70.2699 172.693 66.8799 169.103C66.0699 168.253 65.6199 166.373 65.4399 166.223C65.1999 166.033 62.2099 165.723 61.3499 165.393C49.0999 160.773 51.85 150.933 62.55 146.673L62.5399 146.683Z" fill="#278A58"/>
<path d="M237.27 238.663C238.48 238.623 236.53 240.243 236.35 240.713C235.12 243.903 235.97 245.103 236.16 248.153C236.19 248.583 235.44 248.883 235.59 249.803C235.71 250.543 237.22 251.703 237.87 252.073C245.7 256.563 261.32 245.333 269.97 250.063C272.26 251.313 272.98 254.103 275.04 255.483C282.33 260.353 289.93 252.283 297.98 253.103C303.05 253.623 302.67 257.163 305.04 258.133C307.66 259.203 312.79 258.023 315.43 257.093C322.03 254.753 330.55 245.123 337.23 251.763C337.42 260.133 316.23 268.493 309.52 269.723C306.49 270.273 302.9 269.933 299.89 271.093C295.13 272.923 293.49 276.703 286.56 278.513C272.52 282.163 268.16 276.413 256.49 271.583C248.82 268.413 242.58 271.913 235.86 269.103C230.67 266.933 231.73 262.283 231.04 261.723C230.83 261.553 226.97 260.953 225.77 260.423C217.16 256.643 217.97 248.323 225.56 244.023C228.27 242.483 231.96 242.303 234.24 241.243C234.81 240.983 236.37 239.253 237.28 238.683L237.27 238.663Z" fill="#278A58"/>
<path d="M494.9 291.343L498.92 291.883C495.4 295.373 492.15 300.113 497.61 303.513C512.19 312.613 523.12 298.563 534.04 299.133C541.93 299.543 533.03 310.243 543.71 307.273C548.56 305.923 555.42 301.043 560.44 301.913C562.13 302.203 562.92 303.833 564.97 303.693C568.23 303.473 576.98 298.683 581.58 297.833C584.03 297.383 585.68 297.783 587.73 297.513C593.65 296.753 598.01 290.563 603.59 289.633C612.42 297.723 601.14 307.633 593.59 310.883C586.04 314.133 576.77 314.363 570.39 317.073C567.33 318.373 565.08 321.953 561.98 323.673C554.13 328.033 546.69 328.373 538.38 325.833C535.28 324.883 527.47 320.453 525.57 320.233C523.35 319.973 517.95 321.213 514.79 321.093C508.02 320.833 505.36 319.703 500.67 314.933C500.17 314.423 499.79 313.083 499.64 312.963C499.25 312.653 496.38 312.383 495.5 312.073C491.93 310.793 486.97 308.193 487.08 303.643C487.16 300.383 492.28 293.323 494.89 291.333L494.9 291.343Z" fill="#278A58"/>
<path d="M273.69 11.8327C273.47 12.7127 271.98 12.2327 271.04 12.6527C268.9 13.6027 266.01 19.4127 267.05 21.8627C267.49 22.8927 273.22 26.8627 274.47 27.4927C283.89 32.2327 300.83 22.9027 305.98 26.5927C310.53 29.8427 305.57 33.9827 315.21 31.9327C321.13 30.6827 331.47 25.0827 337.2 27.2127C339.48 28.0627 340.83 31.2827 342.28 31.8827C347.77 34.1227 370.59 23.4027 376.88 21.2727C381.87 30.3927 365.91 30.7727 362.05 33.9627C359.64 35.9527 359.71 37.9527 356.09 39.6727C349 43.0427 344.79 39.6027 338.64 40.7027C337.25 40.9527 334.27 44.1027 332.73 45.0027C328.8 47.2827 321.04 49.1027 316.57 48.6627C313.1 48.3227 308.86 45.3227 305.84 44.8027C302.8 44.2827 299.96 45.3927 296.65 44.2127C292.34 42.6827 292.86 38.5527 292.06 37.9827C291.49 37.5727 283.77 39.3427 282.22 39.3527C277.88 39.3727 273.23 37.3827 271.33 33.2327C271.01 32.5327 271.38 31.5327 270.91 30.9927C270.54 30.5827 264.37 29.0927 262.73 27.8727C258.42 24.6827 258.22 18.6327 262.34 15.1827C266.38 11.7927 269.25 12.8327 273.69 11.8327Z" fill="#278A58"/>
<path d="M125.56 305.593C125.78 307.973 125.34 306.313 124.39 307.153C119.84 311.213 125.01 315.223 128.78 316.723C136.31 319.713 143.82 312.533 148.9 314.863C153.05 316.763 149.7 324.033 150.13 324.433C151.2 325.413 168.48 320.083 171.63 320.003C177.29 319.853 179.27 324.663 184.46 325.093C188.98 325.473 194.88 322.263 199.62 322.213C197.19 326.463 184.09 331.833 179.31 332.803C176.82 333.313 173.68 333.083 171.3 333.883C166.81 335.393 165.34 339.183 158.43 340.343C150.19 341.723 149.49 339.213 142.81 336.893C141.09 336.293 138.79 336.153 136.73 335.473C135.99 335.233 134.81 334.123 134.34 334.063C133.51 333.953 131.04 335.163 129.87 335.313C125.65 335.843 118.92 333.903 116.92 329.693C116.34 328.463 116.54 326.773 116.45 326.653C116.1 326.203 111.18 325.623 109.5 322.113C107.7 318.353 110.82 314.673 114 312.973C115.69 312.073 120.09 311.393 120.92 310.813C121.32 310.533 124.15 306.793 125.57 305.583L125.56 305.593Z" fill="#278A58"/>
<path d="M477.63 194.723C479.11 194.403 480.66 193.623 481.98 194.913C483.76 196.663 480.96 196.483 479.58 197.473C477.78 198.763 474.53 205.173 476.69 206.583C478.14 207.523 488.06 207.113 490.13 206.723C495.35 205.743 506.04 199.113 510.77 202.253C513.43 204.013 513.71 209.483 516.65 209.983C523.49 211.143 530.17 203.353 537.65 204.753C539.07 205.023 540.24 206.283 541.14 206.453C542.45 206.693 561.89 202.283 564.15 201.523C566.94 200.583 568.58 198.763 571.31 198.063C571.88 199.753 572.55 200.243 572.07 202.253C570.79 207.583 556.41 214.373 551.49 215.533C548.09 216.333 543.86 216.033 540.71 217.193C538.51 218.003 536.96 220.143 535.02 221.283C528.4 225.163 520.6 225.503 513.66 222.423C511.69 221.553 508.15 218.563 506.81 218.393C502.72 217.853 498.98 220.733 493.04 219.193C489.06 218.163 486.1 213.773 485.06 213.423C481.93 212.373 478.77 214.403 474.5 211.343C469.09 207.453 472.24 197.393 477.16 194.993C477.25 194.953 477.32 194.823 477.39 194.753C477.46 194.733 477.55 194.763 477.63 194.753V194.723Z" fill="#278A58"/>
<defs>
<filter id="filter0_d_61_1078" x="70" y="423.796" width="264.576" height="100.854" filterUnits="userSpaceOnUse" color-interpolation-filters="sRGB">
<feFlood flood-opacity="0" result="BackgroundImageFix"/>
<feColorMatrix in="SourceAlpha" type="matrix" values="0 0 0 0 0 0 0 0 0 0 0 0 0 0 0 0 0 0 127 0" result="hardAlpha"/>
<feOffset dy="4"/>
<feGaussianBlur stdDeviation="2"/>
<feComposite in2="hardAlpha" operator="out"/>
<feColorMatrix type="matrix" values="0 0 0 0 0 0 0 0 0 0 0 0 0 0 0 0 0 0 0.25 0"/>
<feBlend mode="normal" in2="BackgroundImageFix" result="effect1_dropShadow_61_1078"/>
<feBlend mode="normal" in="SourceGraphic" in2="effect1_dropShadow_61_1078" result="shape"/>
</filter>
<filter id="filter1_d_61_1078" x="319.195" y="420" width="251.638" height="104.06" filterUnits="userSpaceOnUse" color-interpolation-filters="sRGB">
<feFlood flood-opacity="0" result="BackgroundImageFix"/>
<feColorMatrix in="SourceAlpha" type="matrix" values="0 0 0 0 0 0 0 0 0 0 0 0 0 0 0 0 0 0 127 0" result="hardAlpha"/>
<feOffset dy="4"/>
<feGaussianBlur stdDeviation="2"/>
<feComposite in2="hardAlpha" operator="out"/>
<feColorMatrix type="matrix" values="0 0 0 0 0 0 0 0 0 0 0 0 0 0 0 0 0 0 0.25 0"/>
<feBlend mode="normal" in2="BackgroundImageFix" result="effect1_dropShadow_61_1078"/>
<feBlend mode="normal" in="SourceGraphic" in2="effect1_dropShadow_61_1078" result="shape"/>
</filter>
</defs>
</svg>
